<?xml version="1.0" encoding="UTF-8"?>
<svg width="60mm" height="60mm" version="1.1" viewBox="0 0 60 60" xmlns="http://www.w3.org/2000/svg">
 <defs>
  <radialGradient id="radialGradient926" cx="41.58" cy="42.33" r="15.03" gradientTransform="matrix(1 0 0 .9794 -11.64 -11.3)" gradientUnits="userSpaceOnUse">
   <stop stop-color="#f00" offset="0"/>
   <stop stop-color="#b00" offset=".797"/>
   <stop stop-color="#fe0500" offset="1"/>
  </radialGradient>
  <filter id="filter2100" x="-.15" y="-.15" width="1.27" height="1.35" color-interpolation-filters="sRGB">
   <feFlood flood-color="rgb(0,0,0)" flood-opacity=".9294" result="flood"/>
   <feComposite in="flood" in2="SourceGraphic" operator="in" result="composite1"/>
   <feGaussianBlur in="composite1" result="blur" stdDeviation="1.2"/>
   <feOffset dx="1" dy="1.4" result="offset"/>
   <feComposite in="SourceGraphic" in2="offset" result="composite2"/>
  </filter>
  <radialGradient id="radialGradient2120" cx="42.04" cy="42.33" r="29.69" gradientTransform="matrix(.9764 0 0 .9687 -10.49 -10.85)" gradientUnits="userSpaceOnUse">
   <stop stop-color="#e9e916" offset="0"/>
   <stop stop-color="#e9e916" offset=".9573"/>
   <stop stop-color="#93930e" offset="1"/>
  </radialGradient>
 </defs>
 <ellipse cx="30.11" cy="30.16" rx="28.85" ry="28.62" fill="url(#radialGradient2120)" fill-rule="evenodd" stroke="#e5dc00" stroke-width=".2874"/>
 <circle cx="29.94" cy="30.16" r="26.46" fill="#e9e916" fill-rule="evenodd"/>
 <ellipse transform="rotate(191.8)" cx="-35.49" cy="-23.38" rx="19.79" ry="18.86" fill="none" stroke-width=".1932"/>
 <g stroke-width=".2646">
  <ellipse cx="29.94" cy="30.16" rx="14.9" ry="14.59" fill="url(#radialGradient926)" filter="url(#filter2100)" stroke="#bc0000"/>
  <g transform="matrix(.9909 -.1428 .1349 1.049 -16.74 -8.317)" style="font-variant-caps:normal;font-variant-east-asian:normal;font-variant-ligatures:normal;font-variant-numeric:normal" aria-label="Emergency Stop">
   <path d="m23.35 34.52-1.07 3.163-4.373-1.479 1.07-3.163 0.8459 0.2861-0.6903 2.041 0.7549 0.2553 0.6406-1.894 0.8459 0.2861-0.6406 1.894 1.081 0.3655 0.6903-2.041z" style="font-variant-caps:normal;font-variant-east-asian:normal;font-variant-ligatures:normal;font-variant-numeric:normal"/>
   <path d="m23.67 29.37 1.992 1.457-0.6625 0.906-1.404-1.027q-0.2052-0.1501-0.3552-0.2444-0.1525-0.09614-0.2755-0.117t-0.2308 0.04249q-0.1084 0.05899-0.2292 0.2242-0.097 0.1327-0.1334 0.2981-0.03895 0.1636-0.05208 0.3076l1.992 1.457-0.6588 0.901-2.811-2.055 0.6588-0.901 0.3104 0.2269q-0.01251-0.3664 0.04044-0.6541 0.05294-0.2878 0.2414-0.5456 0.2031-0.2778 0.4838-0.3991 0.2782-0.1231 0.6063-0.06751-0.03011-0.4368 0.02642-0.7873 0.05653-0.3505 0.2359-0.5957 0.3331-0.4555 0.7779-0.4913 0.4467-0.03829 0.9598 0.3369l1.83 1.338-0.6625 0.906-1.404-1.027q-0.2077-0.1519-0.3577-0.2462-0.1482-0.09681-0.2712-0.1176-0.1212-0.02334-0.229 0.03999-0.1103 0.06149-0.2329 0.2292-0.08236 0.1126-0.121 0.2495-0.04115 0.1351-0.06452 0.3561z" style="font-variant-caps:normal;font-variant-east-asian:normal;font-variant-ligatures:normal;font-variant-numeric:normal"/>
   <path d="m29.71 25.08-2.039 1.54q0.2665 0.3116 0.6249 0.3129 0.3609-6.2e-4 0.8062-0.337 0.282-0.2131 0.4701-0.5145 0.1881-0.3014 0.2537-0.5336l0.09896-0.07475 0.5401 0.715q-0.2103 0.3492-0.4363 0.6055-0.2261 0.2563-0.5502 0.5011-0.8362 0.6317-1.566 0.592-0.7294-0.03966-1.255-0.7349-0.5195-0.6878-0.4017-1.406 0.1184-0.7228 0.8532-1.278 0.6779-0.5121 1.279-0.4261 0.5993 0.08352 1.085 0.7268zm-1.28 0.147q-0.2186-0.274-0.4563-0.3159-0.2377-0.04197-0.5147 0.1673-0.2573 0.1944-0.3221 0.4532-0.06484 0.2588 0.1378 0.5682z" style="font-variant-caps:normal;font-variant-east-asian:normal;font-variant-ligatures:normal;font-variant-numeric:normal"/>
   <path d="m32.55 22.67-0.08903 0.0438q-0.07494 0.0092-0.2223 0.06791-0.1474 0.05868-0.242 0.1052-0.2142 0.1054-0.3647 0.214-0.1505 0.1086-0.3068 0.2684l1.029 2.092-1.002 0.4928-1.537-3.124 1.002-0.4928 0.2259 0.459q0.1914-0.4467 0.3911-0.6589 0.1983-0.215 0.4042-0.3163 0.05286-0.02601 0.121-0.05608 0.06814-0.03007 0.121-0.04914z" style="font-variant-caps:normal;font-variant-east-asian:normal;font-variant-ligatures:normal;font-variant-numeric:normal"/>
   <path d="m37.37 23.31q0.129 0.4726 0.08249 0.8324-0.04646 0.3598-0.239 0.6084-0.1917 0.2516-0.5136 0.4262-0.3182 0.1768-0.7489 0.2943-0.35 0.09549-0.7024 0.1467-0.3494 0.05035-0.614 0.05826l-0.2293-0.8405 0.1316-0.03591q0.2186 0.02391 0.5199 0.0092 0.3021-0.01173 0.5265-0.07294 0.2991-0.08161 0.4691-0.189 0.1738-0.1053 0.2447-0.2339 0.06661-0.121 0.06768-0.282 0.0011-0.161-0.05606-0.3704l-0.01714-0.06282q-0.1512 0.2116-0.3622 0.3688-0.211 0.1572-0.5012 0.2364-0.7059 0.1926-1.205-0.1277t-0.7355-1.188q-0.1134-0.4158-0.07922-0.7497 0.03423-0.3339 0.1854-0.6162 0.1403-0.2633 0.3956-0.4583 0.2583-0.1958 0.5604-0.2783 0.2722-0.07427 0.5115-0.06886 0.2415 0.0016 0.455 0.06549l-0.0019-0.1602 1.044-0.2848zm-1.26-0.3792-0.4154-1.523q-0.1033-0.01359-0.2437 0.0022-0.1411 0.0128-0.2488 0.04218-0.4248 0.1159-0.5702 0.4191-0.1463 0.3002-0.02711 0.737 0.1322 0.4846 0.3639 0.6271 0.2347 0.1417 0.5907 0.04453 0.1615-0.04407 0.3032-0.1374 0.1417-0.09329 0.2474-0.2121z" style="font-variant-caps:normal;font-variant-east-asian:normal;font-variant-ligatures:normal;font-variant-numeric:normal"/>
   <path d="m41.88 21.83-2.551 0.1339q0.04622 0.4074 0.3425 0.6092 0.2993 0.2016 0.8567 0.1724 0.353-0.01852 0.6776-0.1629 0.3246-0.1443 0.509-0.2999l0.1239-0.0065 0.04696 0.8948q-0.3698 0.1715-0.7006 0.2572-0.3308 0.08567-0.7364 0.107-1.047 0.05492-1.629-0.3865-0.582-0.4414-0.6277-1.311-0.04517-0.8608 0.4549-1.39 0.503-0.5325 1.423-0.5807 0.8484-0.04452 1.298 0.3634 0.4497 0.4049 0.492 1.21zm-1.143-0.5952q-0.02765-0.3494-0.201-0.5173-0.1734-0.1679-0.5202-0.1497-0.322 0.0169-0.5207 0.195-0.1987 0.1781-0.2041 0.5479z" style="font-variant-caps:normal;font-variant-east-asian:normal;font-variant-ligatures:normal;font-variant-numeric:normal"/>
   <path d="m46.21 23.97-1.108-0.1778 0.2736-1.705q0.0334-0.2082 0.04487-0.4167 0.01197-0.2116-0.02436-0.3179-0.04306-0.1231-0.1541-0.1943-0.108-0.07071-0.3192-0.1046-0.15-0.02407-0.314-1.3e-4 -0.1609 0.02443-0.3587 0.1026l-0.3909 2.437-1.102-0.1768 0.5515-3.438 1.102 0.1768-0.0609 0.3796q0.3307-0.1825 0.6198-0.2617 0.2921-0.07875 0.6227-0.02571 0.5572 0.08939 0.8174 0.464 0.2633 0.3751 0.1596 1.021z" style="font-variant-caps:normal;font-variant-east-asian:normal;font-variant-ligatures:normal;font-variant-numeric:normal"/>
   <path d="m48.87 25q-0.4271-0.1592-0.7437-0.3929-0.3137-0.2327-0.4961-0.5422-0.1795-0.3085-0.2017-0.684-0.02219-0.3756 0.1391-0.8085 0.17-0.4562 0.4445-0.7311 0.2774-0.2738 0.6317-0.39 0.3413-0.1078 0.7227-0.0748 0.3815 0.03296 0.7534 0.1715 0.3341 0.1245 0.5889 0.3022 0.2548 0.1777 0.4555 0.3848l-0.3324 0.892-0.1482-0.05522q-0.04153-0.07503-0.1027-0.1772-0.05827-0.1011-0.1583-0.2145-0.0953-0.1083-0.2225-0.202-0.1261-0.09663-0.315-0.167-0.4184-0.1559-0.7446 0.02694-0.3222 0.181-0.4922 0.6372-0.1754 0.4707-0.03681 0.8003 0.1415 0.3307 0.5657 0.4887 0.1976 0.07362 0.3707 0.08851 0.1771 0.01306 0.3045-9e-3 0.1204-0.0213 0.2198-0.05707t0.186-0.07296l0.1482 0.05522-0.3324 0.892q-0.2903 0.02419-0.5854-0.0097-0.2933-0.02988-0.6187-0.1511z" style="font-variant-caps:normal;font-variant-east-asian:normal;font-variant-ligatures:normal;font-variant-numeric:normal"/>
   <path d="m52.66 25.43 1.852-1.506 0.9786 0.5987-4.134 3.05-1.031-0.6311 1.15-0.8228 0.6484-3.656 0.9998 0.6117z" style="font-variant-caps:normal;font-variant-east-asian:normal;font-variant-ligatures:normal;font-variant-numeric:normal"/>
   <path d="m59.3 31.3q-0.523 0.438-1.223 0.2682-0.6959-0.1694-1.333-0.93-0.3683-0.4398-0.567-0.8315-0.1943-0.3914-0.3143-0.7761l0.8486-0.7107 0.08361 0.09984q0.01109 0.472 0.1825 0.923 0.1734 0.4533 0.4442 0.7766 0.06968 0.0832 0.1974 0.2067 0.1277 0.1235 0.2327 0.1812 0.1304 0.06876 0.2503 0.08156 0.1219 0.01518 0.2479-0.09033 0.1165-0.09755 0.1161-0.2671 4e-3 -0.1691-0.1101-0.3971-0.1197-0.2395-0.2664-0.4968-0.1424-0.2569-0.2414-0.5056-0.2293-0.5683-0.1473-0.9727 0.08634-0.404 0.4548-0.7125 0.4944-0.4141 1.176-0.2327 0.686 0.1817 1.269 0.8782 0.2926 0.3494 0.5084 0.7471 0.2201 0.398 0.3269 0.7332l-0.8153 0.6828-0.08162-0.09746q-8e-3 -0.3573-0.1547-0.7642-0.1423-0.4066-0.4131-0.7298-0.09556-0.1141-0.2078-0.2143-0.1078-0.09978-0.2382-0.1685-0.1133-0.06284-0.2427-0.06769-0.1271-0.0068-0.2198 0.07081-0.1402 0.1175-0.1267 0.2881 0.0159 0.1687 0.2029 0.5176 0.1228 0.2288 0.2341 0.4389 0.1133 0.2125 0.2199 0.4751 0.2073 0.518 0.138 0.9036-0.06495 0.386-0.431 0.6926z" style="font-variant-caps:normal;font-variant-east-asian:normal;font-variant-ligatures:normal;font-variant-numeric:normal"/>
   <path d="m59.65 34.85q-0.128-0.1346-0.2475-0.2988-0.1223-0.1626-0.2638-0.4174-0.3162-0.5692-0.2409-0.9764 0.07681-0.4044 0.6352-0.7146l1.423-0.7905-0.2228-0.4011 0.6613-0.3674 0.2228 0.4011 0.8701-0.4833 0.542 0.9758-0.8701 0.4833 0.5074 0.9134-0.6613 0.3674-0.5074-0.9134-1.079 0.5993q-0.1599 0.08884-0.2777 0.1578-0.1178 0.06896-0.19 0.1623-0.07379 0.09065-0.07801 0.2171-4e-6 0.1277 0.1024 0.312 0.04216 0.07589 0.1424 0.1798 0.1018 0.1066 0.156 0.1403l0.04517 0.08131z" style="font-variant-caps:normal;font-variant-east-asian:normal;font-variant-ligatures:normal;font-variant-numeric:normal"/>
   <path d="m62.68 38.31q-0.8167 0.2658-1.444-0.05837-0.6233-0.3221-0.9034-1.183t0.03322-1.491q0.3173-0.6282 1.134-0.894 0.8226-0.2677 1.447 0.05741 0.6252 0.328 0.9034 1.183 0.2821 0.8668-0.03617 1.492-0.3173 0.6282-1.134 0.894zm-1.23-1.044q0.1604 0.06194 0.3536 0.0545 0.1971-0.0055 0.5126-0.1081 0.2919-0.09498 0.4722-0.2123 0.1803-0.1174 0.2675-0.2501 0.09018-0.1337 0.09713-0.2827 0.0069-0.149-0.04294-0.3023-0.04989-0.1533-0.1305-0.2608-0.07965-0.1045-0.239-0.1733-0.1466-0.05988-0.3663-0.05361-0.2187 0.0092-0.5224 0.108-0.2713 0.08827-0.4554 0.2036-0.1812 0.1144-0.2705 0.251-0.08429 0.1318-0.09514 0.2788-0.0099 0.1499 0.04479 0.318 0.04701 0.1445 0.1364 0.2589 0.0933 0.1164 0.238 0.1704z" style="font-variant-caps:normal;font-variant-east-asian:normal;font-variant-ligatures:normal;font-variant-numeric:normal"/>
   <path d="m63.21 43.15q-0.4298 0.03168-0.7921-0.0753-0.3621-0.1039-0.6066-0.3004-0.2576-0.2049-0.402-0.4771-0.1444-0.2723-0.1681-0.5939-0.02188-0.2969 0.02779-0.5088 0.04657-0.2117 0.145-0.4366l-1.447 0.1067-0.08205-1.113 4.747-0.3498 0.08205 1.113-0.3618 0.02666q0.223 0.2416 0.3694 0.4982 0.1466 0.2597 0.1724 0.6091 0.04786 0.6494-0.4019 1.043-0.4495 0.3969-1.281 0.4582zm-0.1062-1.146q0.5071-0.03738 0.7232-0.2274 0.2161-0.19 0.1885-0.5642-0.01162-0.1577-0.07341-0.321-0.05869-0.1636-0.1595-0.3085l-1.747 0.1288q-0.03509 0.1145-0.03811 0.2422-3e-3 0.1277 0.0061 0.2514 0.03259 0.4422 0.3052 0.6397 0.2757 0.1973 0.7952 0.159z" style="font-variant-caps:normal;font-variant-east-asian:normal;font-variant-ligatures:normal;font-variant-numeric:normal"/>
  </g>
  <text x="21.502117" y="32.214386" fill="#ffffff" font-family="sans-serif" font-size="5.644px" font-weight="bold" style="font-variant-caps:normal;font-variant-east-asian:normal;font-variant-ligatures:normal;font-variant-numeric:normal;line-height:1.25" xml:space="preserve"><tspan x="21.502117" y="32.214386" fill="#ffffff" font-family="sans-serif" font-size="5.644px" font-weight="bold" stroke-width=".2646" style="font-variant-caps:normal;font-variant-east-asian:normal;font-variant-ligatures:normal;font-variant-numeric:normal">STOP</tspan></text>
 </g>
</svg>
