<?xml version="1.0" standalone="no"?><!-- Generator: Gravit.io --><svg xmlns="http://www.w3.org/2000/svg" xmlns:xlink="http://www.w3.org/1999/xlink" style="isolation:isolate" viewBox="0 0 210 200" width="210" height="200"><defs><clipPath id="_clipPath_55usepIp1JOigWC2e7xihAhdGm8Ex09r"><rect width="210" height="200"/></clipPath></defs><g clip-path="url(#_clipPath_55usepIp1JOigWC2e7xihAhdGm8Ex09r)"><linearGradient id="_lgradient_19" x1="0.8535533905932737" y1="0.8535533905932737" x2="0.14644660940672627" y2="0.14644660940672616" gradientTransform="matrix(31.313,0,0,26.375,157.729,70.167)" gradientUnits="userSpaceOnUse"><stop offset="0%" stop-opacity="1" style="stop-color:rgb(132,132,132)"/><stop offset="100%" stop-opacity="1" style="stop-color:rgb(0,0,0)"/></linearGradient><path d=" M 157.729 89.729 L 162.917 96.542 Q 189.042 81.292 189.042 75.792 Q 189.042 70.292 183.417 70.167 L 157.729 89.729 Z " fill="url(#_lgradient_19)" vector-effect="non-scaling-stroke" stroke-width="0.1" stroke="rgb(0,0,0)" stroke-linejoin="miter" stroke-linecap="square" stroke-miterlimit="3"/><g><linearGradient id="_lgradient_20" x1="0.609375" y1="1.0298294713656366" x2="0.484375" y2="0.1411247794093654" gradientTransform="matrix(16,0,0,32.772,43.663,112.155)" gradientUnits="userSpaceOnUse"><stop offset="0%" stop-opacity="1" style="stop-color:rgb(119,119,119)"/><stop offset="100%" stop-opacity="1" style="stop-color:rgb(0,0,0)"/></linearGradient><path d=" M 43.663 120.155 Q 43.663 141.53 43.663 143.155 C 43.663 144.78 44.038 145.655 45.663 144.155 Q 47.288 142.655 57.663 133.07 Q 59.663 131.53 59.663 130.155 Q 59.663 128.78 59.663 112.155 L 43.663 120.155 Z " fill="url(#_lgradient_20)" vector-effect="non-scaling-stroke" stroke-width="0.1" stroke="rgb(0,0,0)" stroke-linejoin="miter" stroke-linecap="square" stroke-miterlimit="3"/><linearGradient id="_lgradient_21" x1="0.4639175257731978" y1="1.1914473760667539" x2="0.546391752577321" y2="0.0601674265813914" gradientTransform="matrix(3.197,0,0,24.618,40.58,120.155)" gradientUnits="userSpaceOnUse"><stop offset="0%" stop-opacity="1" style="stop-color:rgb(255,255,255)"/><stop offset="100%" stop-opacity="1" style="stop-color:rgb(0,0,0)"/></linearGradient><path d=" M 43.777 144.773 Q 40.58 144.015 40.58 143.488 Q 40.58 142.663 40.663 120.155 L 43.663 120.155 L 43.777 144.773 Z " fill="url(#_lgradient_21)" vector-effect="non-scaling-stroke" stroke-width="0.1" stroke="rgb(0,0,0)" stroke-linejoin="miter" stroke-linecap="square" stroke-miterlimit="3"/><g><path d=" M 54.246 127.79 C 53.112 130.824 50.725 132.541 48.919 131.621 C 47.113 130.7 46.567 127.489 47.701 124.454 C 48.835 121.42 51.221 119.703 53.027 120.624 C 54.833 121.544 55.379 124.755 54.246 127.79 Z " fill="rgb(255,255,255)" vector-effect="non-scaling-stroke" stroke-width="0.1" stroke="rgb(0,0,0)" stroke-linejoin="miter" stroke-linecap="butt" stroke-miterlimit="3"/><linearGradient id="_lgradient_22" x1="0.609375" y1="1.0298294713656366" x2="0.484375" y2="0.1411247794093654" gradientTransform="matrix(7.139,0.053,-0.085,11.494,47.783,120.299)" gradientUnits="userSpaceOnUse"><stop offset="0%" stop-opacity="1" style="stop-color:rgb(255,255,255)"/><stop offset="100%" stop-opacity="1" style="stop-color:rgb(0,0,0)"/></linearGradient><path d=" M 47.783 130.392 C 48.065 130.911 48.449 131.306 48.92 131.546 C 50.726 132.466 53.112 130.749 54.246 127.715 C 55.38 124.68 54.834 121.469 53.028 120.549 C 52.819 120.442 52.602 120.371 52.378 120.352 C 53.499 121.732 53.338 124.592 51.924 127.096 C 50.792 129.098 49.167 130.327 47.783 130.392 Z " fill-rule="evenodd" fill="url(#_lgradient_22)" vector-effect="non-scaling-stroke" stroke-width="0.1" stroke="rgb(0,0,0)" stroke-linejoin="miter" stroke-linecap="butt" stroke-miterlimit="3"/></g></g><linearGradient id="_lgradient_23" x1="0" y1="0.5" x2="1" y2="0.5" gradientTransform="matrix(157,0,0,71,26.667,18.667)" gradientUnits="userSpaceOnUse"><stop offset="50%" stop-opacity="1" style="stop-color:rgb(0,0,0)"/><stop offset="100%" stop-opacity="1" style="stop-color:rgb(102,102,102)"/></linearGradient><path d=" M 55.667 18.667 L 26.667 38.667 L 85.667 57.667 L 90.667 64.461 L 157.667 89.667 L 183.667 70.176 L 118.667 44.667 L 111.667 36.667 L 55.667 18.667 Z " fill="url(#_lgradient_23)" vector-effect="non-scaling-stroke" stroke-width="0.3" stroke="rgb(0,0,0)" stroke-linejoin="miter" stroke-linecap="square" stroke-miterlimit="3"/><g><linearGradient id="_lgradient_24" x1="0.609375" y1="1.0298294713656366" x2="0.484375" y2="0.1411247794093654" gradientTransform="matrix(16,0,0,32.772,102.24,136.831)" gradientUnits="userSpaceOnUse"><stop offset="0%" stop-opacity="1" style="stop-color:rgb(147,147,147)"/><stop offset="100%" stop-opacity="1" style="stop-color:rgb(0,0,0)"/></linearGradient><path d=" M 102.24 144.831 Q 102.24 166.206 102.24 167.831 C 102.24 169.456 102.615 170.331 104.24 168.831 Q 105.865 167.331 116.24 157.747 Q 118.24 156.206 118.24 154.831 Q 118.24 153.456 118.24 136.831 L 102.24 144.831 Z " fill="url(#_lgradient_24)" vector-effect="non-scaling-stroke" stroke-width="0.1" stroke="rgb(0,0,0)" stroke-linejoin="miter" stroke-linecap="square" stroke-miterlimit="3"/><linearGradient id="_lgradient_25" x1="0.4639175257731978" y1="1.1914473760667539" x2="0.546391752577321" y2="0.0601674265813914" gradientTransform="matrix(3.197,0,0,24.618,99.158,144.831)" gradientUnits="userSpaceOnUse"><stop offset="0%" stop-opacity="1" style="stop-color:rgb(255,255,255)"/><stop offset="100%" stop-opacity="1" style="stop-color:rgb(0,0,0)"/></linearGradient><path d=" M 102.355 169.45 Q 99.158 168.692 99.158 168.164 Q 99.158 167.34 99.24 144.831 L 102.24 144.831 L 102.355 169.45 Z " fill="url(#_lgradient_25)" vector-effect="non-scaling-stroke" stroke-width="0.1" stroke="rgb(0,0,0)" stroke-linejoin="miter" stroke-linecap="square" stroke-miterlimit="3"/><g><path d=" M 112.823 152.466 C 111.689 155.501 109.303 157.217 107.497 156.297 C 105.691 155.377 105.145 152.166 106.278 149.131 C 107.412 146.096 109.799 144.38 111.605 145.3 C 113.411 146.22 113.957 149.431 112.823 152.466 Z " fill="rgb(255,255,255)" vector-effect="non-scaling-stroke" stroke-width="0.1" stroke="rgb(0,0,0)" stroke-linejoin="miter" stroke-linecap="butt" stroke-miterlimit="3"/><linearGradient id="_lgradient_26" x1="0.609375" y1="1.0298294713656366" x2="0.484375" y2="0.1411247794093654" gradientTransform="matrix(7.139,0.053,-0.085,11.494,106.361,144.976)" gradientUnits="userSpaceOnUse"><stop offset="0%" stop-opacity="1" style="stop-color:rgb(255,255,255)"/><stop offset="100%" stop-opacity="1" style="stop-color:rgb(0,0,0)"/></linearGradient><path d=" M 106.36 155.068 C 106.642 155.587 107.027 155.982 107.497 156.222 C 109.303 157.142 111.69 155.426 112.823 152.391 C 113.957 149.356 113.411 146.145 111.605 145.225 C 111.396 145.118 111.18 145.047 110.955 145.028 C 112.076 146.408 111.916 149.268 110.501 151.772 C 109.37 153.774 107.745 155.003 106.36 155.068 Z " fill-rule="evenodd" fill="url(#_lgradient_26)" vector-effect="non-scaling-stroke" stroke-width="0.1" stroke="rgb(0,0,0)" stroke-linejoin="miter" stroke-linecap="butt" stroke-miterlimit="3"/></g></g><g><linearGradient id="_lgradient_27" x1="0.609375" y1="1.0298294713656366" x2="0.484375" y2="0.1411247794093654" gradientTransform="matrix(16,0,0,32.772,156.667,153.667)" gradientUnits="userSpaceOnUse"><stop offset="0%" stop-opacity="1" style="stop-color:rgb(187,187,187)"/><stop offset="100%" stop-opacity="1" style="stop-color:rgb(0,0,0)"/></linearGradient><path d=" M 156.667 161.667 Q 156.667 183.042 156.667 184.667 C 156.667 186.292 157.042 187.167 158.667 185.667 Q 160.292 184.167 170.667 174.582 Q 172.667 173.042 172.667 171.667 Q 172.667 170.292 172.667 153.667 L 156.667 161.667 Z " fill="url(#_lgradient_27)" vector-effect="non-scaling-stroke" stroke-width="0.1" stroke="rgb(0,0,0)" stroke-linejoin="miter" stroke-linecap="square" stroke-miterlimit="3"/><linearGradient id="_lgradient_28" x1="0.4639175257731978" y1="1.1914473760667539" x2="0.546391752577321" y2="0.0601674265813914" gradientTransform="matrix(3.197,0,0,24.618,153.584,161.667)" gradientUnits="userSpaceOnUse"><stop offset="0%" stop-opacity="1" style="stop-color:rgb(255,255,255)"/><stop offset="100%" stop-opacity="1" style="stop-color:rgb(0,0,0)"/></linearGradient><path d=" M 156.781 186.285 Q 153.584 185.527 153.584 185 Q 153.584 184.175 153.667 161.667 L 156.667 161.667 L 156.781 186.285 Z " fill="url(#_lgradient_28)" vector-effect="non-scaling-stroke" stroke-width="0.1" stroke="rgb(0,0,0)" stroke-linejoin="miter" stroke-linecap="square" stroke-miterlimit="3"/><g><path d=" M 167.249 169.301 C 166.116 172.336 163.729 174.052 161.923 173.132 C 160.117 172.212 159.571 169.001 160.705 165.966 C 161.838 162.931 164.225 161.215 166.031 162.135 C 167.837 163.055 168.383 166.266 167.249 169.301 Z " fill="rgb(255,255,255)" vector-effect="non-scaling-stroke" stroke-width="0.1" stroke="rgb(0,0,0)" stroke-linejoin="miter" stroke-linecap="butt" stroke-miterlimit="3"/><linearGradient id="_lgradient_29" x1="0.609375" y1="1.0298294713656366" x2="0.484375" y2="0.1411247794093654" gradientTransform="matrix(7.139,0.053,-0.085,11.494,160.787,161.811)" gradientUnits="userSpaceOnUse"><stop offset="0%" stop-opacity="1" style="stop-color:rgb(255,255,255)"/><stop offset="100%" stop-opacity="1" style="stop-color:rgb(0,0,0)"/></linearGradient><path d=" M 160.787 171.903 C 161.068 172.423 161.453 172.818 161.923 173.057 C 163.729 173.978 166.116 172.261 167.25 169.226 C 168.383 166.192 167.838 162.981 166.032 162.06 C 165.823 161.954 165.606 161.883 165.382 161.863 C 166.503 163.243 166.342 166.103 164.927 168.607 C 163.796 170.609 162.171 171.838 160.787 171.903 Z " fill-rule="evenodd" fill="url(#_lgradient_29)" vector-effect="non-scaling-stroke" stroke-width="0.1" stroke="rgb(0,0,0)" stroke-linejoin="miter" stroke-linecap="butt" stroke-miterlimit="3"/></g></g><linearGradient id="_lgradient_30" x1="0" y1="0.5" x2="1" y2="0.5" gradientTransform="matrix(26,0,0,87.915,162.667,76.667)" gradientUnits="userSpaceOnUse"><stop offset="1.7391304347826086%" stop-opacity="1" style="stop-color:rgb(51,51,51)"/><stop offset="100%" stop-opacity="1" style="stop-color:rgb(0,0,0)"/></linearGradient><path d=" M 162.667 96.667 L 188.667 76.667 L 188.667 143.667 L 163.667 164.582 L 162.667 96.667 Z " fill="url(#_lgradient_30)" vector-effect="non-scaling-stroke" stroke-width="0.3" stroke="rgb(0,0,0)" stroke-linejoin="miter" stroke-linecap="square" stroke-miterlimit="3"/><linearGradient id="_lgradient_31" x1="0" y1="0.5" x2="1" y2="0.5" gradientTransform="matrix(140.148,0,0,127.836,23.667,38.667)" gradientUnits="userSpaceOnUse"><stop offset="1.3043478260869565%" stop-opacity="1" style="stop-color:rgb(57,57,57)"/><stop offset="100%" stop-opacity="1" style="stop-color:rgb(0,0,0)"/></linearGradient><path d=" M 28.667 38.667 L 85.667 57.667 L 90.667 64.461 Q 141.667 81.667 151.667 86.667 C 161.667 91.667 163.333 93 163.667 106.667 C 164 120.333 163.667 158.487 163.667 163.577 C 163.667 168.667 160 165.831 155.667 164.582 Q 151.333 163.333 136.667 157.667 L 135.667 159.667 L 113.667 151.667 L 113.667 149.667 L 70.667 132.582 L 67.667 134.667 L 46.667 126.667 L 47.667 124.582 Q 32.292 119.167 28.667 117.667 Q 25.042 116.167 24.667 112.457 L 23.667 44.667 Q 23.854 38.854 28.667 38.667 Z " fill="url(#_lgradient_31)" vector-effect="non-scaling-stroke" stroke-width="1" stroke="rgb(0,0,0)" stroke-linejoin="miter" stroke-linecap="square" stroke-miterlimit="3"/><radialGradient id="_rgradient_0" fx="0.39135831520317854" fy="0.3274766164818228" cx="0.5" cy="0.5" r="0.5" gradientTransform="matrix(31.5,-4.134,4.875,36.384,106.979,125.421)" gradientUnits="userSpaceOnUse"><stop offset="0%" stop-opacity="1" style="stop-color:rgb(255,255,255)"/><stop offset="100%" stop-opacity="1" style="stop-color:rgb(0,0,0)"/></radialGradient><path d=" M 134.667 160.667 L 136.667 158.667 Q 136.667 147.872 136.667 134.582 C 136.667 120.042 113.667 118.395 113.667 130.457" fill="url(#_rgradient_0)" vector-effect="non-scaling-stroke" stroke-width="1" stroke="rgb(0,0,0)" stroke-linejoin="miter" stroke-linecap="square" stroke-miterlimit="3"/><radialGradient id="_rgradient_1" fx="0.39135831520317854" fy="0.3274766164818228" cx="0.5" cy="0.5" r="0.5" gradientTransform="matrix(31.5,-4.134,4.875,36.384,41.073,99.578)" gradientUnits="userSpaceOnUse"><stop offset="0%" stop-opacity="1" style="stop-color:rgb(255,255,255)"/><stop offset="100%" stop-opacity="1" style="stop-color:rgb(0,0,0)"/></radialGradient><path d=" M 68.76 134.823 L 70.76 132.823 Q 70.76 122.029 70.76 108.738 C 70.76 94.198 47.76 92.551 47.76 104.613" fill="url(#_rgradient_1)" vector-effect="non-scaling-stroke" stroke-width="1" stroke="rgb(0,0,0)" stroke-linejoin="miter" stroke-linecap="square" stroke-miterlimit="3"/><path d=" M 113.667 152.667 Q 113.667 138.042 113.667 129.667 C 113.667 121.292 134.667 119.979 134.667 135.667 Q 134.667 151.354 134.667 160.667 L 113.667 152.667 Z " fill="rgb(51,51,51)" vector-effect="non-scaling-stroke" stroke-width="1" stroke="rgb(0,0,0)" stroke-linejoin="miter" stroke-linecap="square" stroke-miterlimit="3"/><path d=" M 47.667 127 Q 47.667 112.375 47.667 104 C 47.667 95.625 68.667 94.313 68.667 110 Q 68.667 125.688 68.667 135 L 47.667 127 Z " fill="rgb(51,51,51)" vector-effect="non-scaling-stroke" stroke-width="1" stroke="rgb(0,0,0)" stroke-linejoin="miter" stroke-linecap="square" stroke-miterlimit="3"/><g><g><path d=" M 117.395 138.329 C 115.57 133.515 117.121 128.456 120.859 127.039 C 124.596 125.621 129.112 128.378 130.938 133.192 C 132.764 138.005 131.212 143.064 127.475 144.482 C 123.738 145.899 119.221 143.142 117.395 138.329 Z " fill="rgb(176,176,176)"/><linearGradient id="_lgradient_32" x1="0.703859842323368" y1="0.9823701353634553" x2="0.46583738497031896" y2="0.11391631217201237" gradientTransform="matrix(12.021,-4.56,5.873,15.483,115.41,130.277)" gradientUnits="userSpaceOnUse"><stop offset="0%" stop-opacity="1" style="stop-color:rgb(43,43,43)"/><stop offset="24.217065642330837%" stop-opacity="1" style="stop-color:rgb(40,40,40)"/><stop offset="39.565217391304344%" stop-opacity="1" style="stop-color:rgb(138,138,138)"/><stop offset="46.95652173913044%" stop-opacity="1" style="stop-color:rgb(155,155,155)"/><stop offset="57.391304347826086%" stop-opacity="1" style="stop-color:rgb(149,149,149)"/><stop offset="64.78260869565217%" stop-opacity="1" style="stop-color:rgb(118,118,118)"/><stop offset="78.69565217391305%" stop-opacity="1" style="stop-color:rgb(51,51,51)"/><stop offset="100%" stop-opacity="1" style="stop-color:rgb(5,5,5)"/></linearGradient><path d=" M 118.346 138.018 C 116.726 133.746 118.103 129.255 121.42 127.997 C 124.738 126.739 128.746 129.186 130.367 133.459 C 131.988 137.731 130.61 142.222 127.293 143.48 C 123.976 144.738 119.967 142.291 118.346 138.018 Z " fill="url(#_lgradient_32)"/></g><g><path d=" M 117.302 138.329 C 115.476 133.515 117.028 128.456 120.765 127.039 C 124.502 125.621 129.018 128.378 130.844 133.192 C 132.67 138.005 131.118 143.064 127.381 144.482 C 123.644 145.899 119.127 143.142 117.302 138.329 Z " fill="rgb(176,176,176)"/><linearGradient id="_lgradient_33" x1="0.703859842323368" y1="0.9823701353634553" x2="0.46583738497031896" y2="0.11391631217201237" gradientTransform="matrix(12.021,-4.56,5.873,15.483,115.316,130.277)" gradientUnits="userSpaceOnUse"><stop offset="0%" stop-opacity="1" style="stop-color:rgb(43,43,43)"/><stop offset="24.217065642330837%" stop-opacity="1" style="stop-color:rgb(40,40,40)"/><stop offset="39.565217391304344%" stop-opacity="1" style="stop-color:rgb(138,138,138)"/><stop offset="46.95652173913044%" stop-opacity="1" style="stop-color:rgb(155,155,155)"/><stop offset="57.391304347826086%" stop-opacity="1" style="stop-color:rgb(149,149,149)"/><stop offset="64.78260869565217%" stop-opacity="1" style="stop-color:rgb(118,118,118)"/><stop offset="78.69565217391305%" stop-opacity="1" style="stop-color:rgb(51,51,51)"/><stop offset="100%" stop-opacity="1" style="stop-color:rgb(5,5,5)"/></linearGradient><path d=" M 118.253 138.018 C 116.632 133.746 118.009 129.255 121.327 127.997 C 124.644 126.739 128.653 129.186 130.273 133.459 C 131.894 137.731 130.517 142.222 127.199 143.48 C 123.882 144.738 119.873 142.291 118.253 138.018 Z " fill="url(#_lgradient_33)"/></g></g><linearGradient id="_lgradient_34" x1="0.5683646112600513" y1="0.046875" x2="1.0107238605898097" y2="0.43750000000000017" gradientTransform="matrix(24.587,0,0,16.875,72.011,34.806)" gradientUnits="userSpaceOnUse"><stop offset="2.1739130434782608%" stop-opacity="1" style="stop-color:rgb(59,59,59)"/><stop offset="98.26086956521739%" stop-opacity="1" style="stop-color:rgb(40,40,40)"/></linearGradient><path d=" M 96.598 42.914 L 85.458 51.681 L 72.011 46.408 L 85.788 34.806 L 96.598 42.914 Z " fill="url(#_lgradient_34)" vector-effect="non-scaling-stroke" stroke-width="0.1" stroke="rgb(0,0,0)" stroke-linejoin="miter" stroke-linecap="square" stroke-miterlimit="3"/><linearGradient id="_lgradient_35" x1="0.5010019530382477" y1="0.841240274329734" x2="0.6928200676941715" y2="0.18158707257979256" gradientTransform="matrix(13.983,0,0,10.399,71.729,41.153)" gradientUnits="userSpaceOnUse"><stop offset="1.3043478260869565%" stop-opacity="1" style="stop-color:rgb(125,125,125)"/><stop offset="100%" stop-opacity="1" style="stop-color:rgb(0,0,0)"/></linearGradient><path d=" M 85.524 51.549 C 87.568 41.068 72.275 37.047 71.729 46.417 C 71.725 46.494 85.496 51.694 85.524 51.549 Z " fill="url(#_lgradient_35)" vector-effect="non-scaling-stroke" stroke-width="0.1" stroke="rgb(0,0,0)" stroke-linejoin="miter" stroke-linecap="square" stroke-miterlimit="3"/><linearGradient id="_lgradient_36" x1="0.9934036939313984" y1="0.41116751269035523" x2="0.6952506596306067" y2="1.0406091370558372" gradientTransform="matrix(142.125,0,0,36.938,47.479,22.479)" gradientUnits="userSpaceOnUse"><stop offset="0%" stop-opacity="1" style="stop-color:rgb(255,255,255)"/><stop offset="100%" stop-opacity="1" style="stop-color:rgb(0,0,0)"/></linearGradient><path d=" M 47.479 36.729 L 171.792 59.417 L 189.604 45.917 L 67.167 22.479 L 47.479 36.729 Z " fill="url(#_lgradient_36)" vector-effect="non-scaling-stroke" stroke-width="0.2" stroke="rgb(0,0,0)" stroke-linejoin="miter" stroke-linecap="square" stroke-miterlimit="3"/><path d=" M 51.395 112.641 C 49.57 107.828 51.121 102.769 54.859 101.351 C 58.596 99.934 63.112 102.691 64.938 107.504 C 66.764 112.318 65.212 117.377 61.475 118.794 C 57.738 120.212 53.221 117.455 51.395 112.641 Z " fill="rgb(176,176,176)"/><linearGradient id="_lgradient_37" x1="0.703859842323368" y1="0.9823701353634553" x2="0.46583738497031896" y2="0.11391631217201237" gradientTransform="matrix(12.021,-4.56,5.873,15.483,49.41,104.589)" gradientUnits="userSpaceOnUse"><stop offset="0%" stop-opacity="1" style="stop-color:rgb(43,43,43)"/><stop offset="24.217065642330837%" stop-opacity="1" style="stop-color:rgb(40,40,40)"/><stop offset="39.565217391304344%" stop-opacity="1" style="stop-color:rgb(138,138,138)"/><stop offset="46.95652173913044%" stop-opacity="1" style="stop-color:rgb(155,155,155)"/><stop offset="57.391304347826086%" stop-opacity="1" style="stop-color:rgb(149,149,149)"/><stop offset="64.78260869565217%" stop-opacity="1" style="stop-color:rgb(118,118,118)"/><stop offset="78.69565217391305%" stop-opacity="1" style="stop-color:rgb(51,51,51)"/><stop offset="100%" stop-opacity="1" style="stop-color:rgb(5,5,5)"/></linearGradient><path d=" M 52.346 112.331 C 50.726 108.058 52.103 103.568 55.42 102.309 C 58.738 101.051 62.746 103.498 64.367 107.771 C 65.988 112.044 64.61 116.534 61.293 117.792 C 57.976 119.051 53.967 116.603 52.346 112.331 Z " fill="url(#_lgradient_37)"/></g></svg>