<?xml version="1.0" standalone="no"?><!-- Generator: Gravit.io --><svg xmlns="http://www.w3.org/2000/svg" xmlns:xlink="http://www.w3.org/1999/xlink" style="isolation:isolate" viewBox="0 0 1054.94 470.545" width="1054.94" height="470.545"><defs><clipPath id="_clipPath_Y45Wa5uIfyzPa7fyyQFLSEeNZyA8a5Sm"><rect width="1054.94" height="470.545"/></clipPath></defs><g clip-path="url(#_clipPath_Y45Wa5uIfyzPa7fyyQFLSEeNZyA8a5Sm)"><rect x="0" y="0" width="1054.94" height="470.545" transform="matrix(1,0,0,1,0,0)" fill="none"/><g><g><path d=" M 162.94 155.464 C 113.637 155.464 73.524 195.577 73.524 244.877 C 73.524 294.177 113.64 334.29 162.94 334.29 C 212.24 334.29 252.353 294.177 252.353 244.877 C 252.353 195.577 212.243 155.464 162.94 155.464 Z  M 162.94 321.829 C 120.436 321.829 85.985 287.378 85.985 244.877 C 85.985 202.376 120.433 167.925 162.94 167.925 C 205.438 167.925 239.892 202.376 239.892 244.877 C 239.892 287.378 205.438 321.829 162.94 321.829 Z  M 325.208 259.281 C 325.625 254.532 325.88 249.733 325.88 244.877 C 325.88 240.021 325.625 235.222 325.208 230.473 L 292.862 226.643 C 291.36 215.847 288.546 205.484 284.585 195.696 L 310.7 176.199 C 306.621 167.433 301.777 159.097 296.264 151.264 L 266.324 164.133 C 259.723 155.693 252.122 148.088 243.684 141.493 L 256.548 111.551 C 248.715 106.043 240.381 101.197 231.615 97.117 L 212.115 123.229 C 202.33 119.268 191.961 116.454 181.172 114.955 L 177.341 82.607 C 172.592 82.192 167.793 81.937 162.937 81.937 C 158.073 81.937 153.282 82.192 148.527 82.607 L 144.703 114.955 C 133.907 116.454 123.541 119.268 113.756 123.229 L 94.259 97.117 C 85.493 101.197 77.159 106.04 69.324 111.551 L 82.187 141.493 C 73.75 148.094 66.148 155.693 59.55 164.133 L 29.611 151.264 C 24.1 159.1 19.259 167.433 15.177 176.199 L 41.289 195.696 C 37.328 205.484 34.514 215.847 33.015 226.643 L 0.666 230.47 C 0.252 235.222 0 240.021 0 244.877 C 0 249.733 0.252 254.532 0.669 259.284 L 33.018 263.112 C 34.52 273.904 37.334 284.27 41.292 294.058 L 15.18 313.555 C 19.262 322.321 24.103 330.658 29.614 338.491 L 59.556 325.624 C 66.154 334.062 73.755 341.661 82.193 348.261 L 69.329 378.201 C 77.165 383.711 85.499 388.558 94.265 392.637 L 113.762 366.525 C 123.547 370.483 133.916 373.298 144.708 374.8 L 148.533 407.148 C 153.288 407.562 158.081 407.817 162.943 407.817 C 167.799 407.817 172.598 407.562 177.347 407.148 L 181.177 374.8 C 191.967 373.298 202.336 370.483 212.121 366.525 L 231.621 392.637 C 240.384 388.558 248.721 383.714 256.554 378.207 L 243.69 348.261 C 252.127 341.661 259.729 334.062 266.33 325.624 L 296.269 338.491 C 301.78 330.655 306.626 322.321 310.706 313.555 L 284.585 294.058 C 288.546 284.27 291.36 273.904 292.862 263.112 L 325.208 259.281 Z  M 162.94 340.612 C 110.15 340.612 67.205 297.664 67.205 244.88 C 67.205 192.096 110.15 149.148 162.94 149.148 C 215.724 149.148 258.672 192.096 258.672 244.88 C 258.672 297.664 215.724 340.612 162.94 340.612 Z " fill="rgb(32,0,77)"/></g></g><path d=" M 162.94 450.272 L 331.275 450.272 C 352.615 450.272 369.94 432.947 369.94 411.607 L 369.94 81.937 C 369.94 60.597 352.615 43.272 331.275 43.272 L 162.94 43.272 L 162.94 450.272 L 162.94 450.272 Z " fill="rgb(32,0,77)"/><path d=" M 162.94 382.742 C 164.106 382.757 165.271 382.772 166.44 382.772 C 241.5 382.772 302.44 321.832 302.44 246.772 C 302.44 171.712 241.5 110.772 166.44 110.772 C 165.271 110.772 164.106 110.787 162.94 110.802 L 162.94 382.742 L 162.94 382.742 Z " fill="rgb(166,166,166)"/><path d=" M 162.94 382.742 C 164.106 382.757 165.271 382.772 166.44 382.772 C 241.5 382.772 302.44 321.832 302.44 246.772 C 302.44 171.712 241.5 110.772 166.44 110.772 C 165.271 110.772 164.106 110.787 162.94 110.802 L 162.94 382.742 L 162.94 382.742 Z " fill="rgb(255,255,255)"/><path d=" M 162.94 334.272 C 164.099 334.332 161.767 334.272 162.94 334.272 C 210.543 334.272 252.69 294.375 252.69 246.772 C 252.69 199.169 210.543 156.272 162.94 156.272 C 161.767 156.272 164.099 156.212 162.94 156.272 L 162.94 332.939 L 162.94 334.272 Z " fill="rgb(88,88,162)"/><path d=" M 162.94 260.022 C 162.922 260.016 162.922 260.024 162.94 260.022 C 170.253 260.022 176.69 254.085 176.69 246.772 C 176.69 239.459 170.753 233.522 163.44 233.522 C 162.227 233.522 164.052 233.201 162.94 233.522 L 162.94 260.022 L 162.94 260.022 Z " fill="rgb(208,208,208)"/><path d=" M 159.94 253.275 C 160.985 253.828 162.176 254.147 163.44 254.147 C 167.51 254.147 170.815 250.842 170.815 246.772 C 170.815 242.702 167.51 239.397 163.44 239.397 C 162.176 239.397 160.985 239.716 159.94 240.269 L 159.94 253.275 L 159.94 253.275 Z " fill="rgb(255,255,255)"/><circle vector-effect="non-scaling-stroke" cx="329.315" cy="82.64699999999999" r="7.375" fill="rgb(255,255,255)"/><circle vector-effect="non-scaling-stroke" cx="336.69" cy="420.647" r="7.375" fill="rgb(255,255,255)"/><path d=" M 474.354 149.194 L 474.354 160.327 L 414.662 160.327 L 414.662 53.247 L 474.354 53.247 L 474.354 64.306 L 427.113 64.306 L 427.113 98.804 L 471.498 98.804 L 471.498 109.79 L 427.113 109.79 L 427.113 149.194 L 474.354 149.194 L 474.354 149.194 Z  M 558.509 131.836 L 558.509 131.836 L 558.509 131.836 Q 558.509 145.972 548.255 153.882 L 548.255 153.882 L 548.255 153.882 Q 538.002 161.792 520.423 161.792 L 520.423 161.792 L 520.423 161.792 Q 501.38 161.792 491.127 156.885 L 491.127 156.885 L 491.127 144.873 L 491.127 144.873 Q 497.718 147.656 505.482 149.267 L 505.482 149.267 L 505.482 149.267 Q 513.246 150.879 520.863 150.879 L 520.863 150.879 L 520.863 150.879 Q 533.314 150.879 539.613 146.155 L 539.613 146.155 L 539.613 146.155 Q 545.912 141.431 545.912 133.008 L 545.912 133.008 L 545.912 133.008 Q 545.912 127.441 543.678 123.889 L 543.678 123.889 L 543.678 123.889 Q 541.444 120.337 536.207 117.334 L 536.207 117.334 L 536.207 117.334 Q 530.97 114.331 520.277 110.522 L 520.277 110.522 L 520.277 110.522 Q 505.336 105.176 498.927 97.851 L 498.927 97.851 L 498.927 97.851 Q 492.518 90.527 492.518 78.735 L 492.518 78.735 L 492.518 78.735 Q 492.518 66.357 501.82 59.033 L 501.82 59.033 L 501.82 59.033 Q 511.122 51.709 526.429 51.709 L 526.429 51.709 L 526.429 51.709 Q 542.396 51.709 555.799 57.568 L 555.799 57.568 L 551.918 68.408 L 551.918 68.408 Q 538.661 62.842 526.136 62.842 L 526.136 62.842 L 526.136 62.842 Q 516.249 62.842 510.682 67.09 L 510.682 67.09 L 510.682 67.09 Q 505.116 71.338 505.116 78.882 L 505.116 78.882 L 505.116 78.882 Q 505.116 84.448 507.167 88 L 507.167 88 L 507.167 88 Q 509.217 91.553 514.088 94.519 L 514.088 94.519 L 514.088 94.519 Q 518.959 97.485 528.993 101.074 L 528.993 101.074 L 528.993 101.074 Q 545.838 107.08 552.174 113.965 L 552.174 113.965 L 552.174 113.965 Q 558.509 120.849 558.509 131.836 Z  M 648.304 84.448 L 648.304 84.448 L 648.304 84.448 Q 648.304 100.708 637.208 109.46 L 637.208 109.46 L 637.208 109.46 Q 626.112 118.213 605.458 118.213 L 605.458 118.213 L 592.86 118.213 L 592.86 160.327 L 580.409 160.327 L 580.409 53.247 L 608.168 53.247 L 608.168 53.247 Q 648.304 53.247 648.304 84.448 Z  M 592.86 64.014 L 592.86 107.519 L 604.066 107.519 L 604.066 107.519 Q 620.619 107.519 628.016 102.173 L 628.016 102.173 L 628.016 102.173 Q 635.414 96.826 635.414 85.034 L 635.414 85.034 L 635.414 85.034 Q 635.414 74.414 628.456 69.214 L 628.456 69.214 L 628.456 69.214 Q 621.498 64.014 606.776 64.014 L 606.776 64.014 L 592.86 64.014 L 592.86 64.014 Z " fill-rule="evenodd" fill="rgb(191,191,191)"/><path d=" M 450.038 255.072 L 450.038 255.072 L 450.038 255.072 Q 450.038 264.496 443.202 269.769 L 443.202 269.769 L 443.202 269.769 Q 436.366 275.043 424.647 275.043 L 424.647 275.043 L 424.647 275.043 Q 411.952 275.043 405.116 271.771 L 405.116 271.771 L 405.116 263.763 L 405.116 263.763 Q 409.51 265.619 414.686 266.693 L 414.686 266.693 L 414.686 266.693 Q 419.862 267.767 424.94 267.767 L 424.94 267.767 L 424.94 267.767 Q 433.241 267.767 437.44 264.618 L 437.44 264.618 L 437.44 264.618 Q 441.639 261.468 441.639 255.853 L 441.639 255.853 L 441.639 255.853 Q 441.639 252.142 440.15 249.774 L 440.15 249.774 L 440.15 249.774 Q 438.661 247.406 435.169 245.404 L 435.169 245.404 L 435.169 245.404 Q 431.678 243.402 424.549 240.863 L 424.549 240.863 L 424.549 240.863 Q 414.588 237.298 410.316 232.416 L 410.316 232.416 L 410.316 232.416 Q 406.044 227.533 406.044 219.671 L 406.044 219.671 L 406.044 219.671 Q 406.044 211.42 412.245 206.537 L 412.245 206.537 L 412.245 206.537 Q 418.446 201.654 428.651 201.654 L 428.651 201.654 L 428.651 201.654 Q 439.295 201.654 448.231 205.56 L 448.231 205.56 L 445.643 212.787 L 445.643 212.787 Q 436.805 209.076 428.456 209.076 L 428.456 209.076 L 428.456 209.076 Q 421.864 209.076 418.153 211.908 L 418.153 211.908 L 418.153 211.908 Q 414.442 214.74 414.442 219.769 L 414.442 219.769 L 414.442 219.769 Q 414.442 223.48 415.809 225.848 L 415.809 225.848 L 415.809 225.848 Q 417.176 228.216 420.423 230.194 L 420.423 230.194 L 420.423 230.194 Q 423.67 232.171 430.36 234.564 L 430.36 234.564 L 430.36 234.564 Q 441.59 238.568 445.814 243.158 L 445.814 243.158 L 445.814 243.158 Q 450.038 247.748 450.038 255.072 Z  M 480.702 268.353 L 480.702 268.353 L 480.702 268.353 Q 482.85 268.353 484.852 268.036 L 484.852 268.036 L 484.852 268.036 Q 486.854 267.718 488.026 267.377 L 488.026 267.377 L 488.026 273.578 L 488.026 273.578 Q 486.708 274.212 484.144 274.628 L 484.144 274.628 L 484.144 274.628 Q 481.581 275.043 479.53 275.043 L 479.53 275.043 L 479.53 275.043 Q 464.003 275.043 464.003 258.685 L 464.003 258.685 L 464.003 226.849 L 456.336 226.849 L 456.336 222.943 L 464.003 219.574 L 467.42 208.148 L 472.108 208.148 L 472.108 220.55 L 487.635 220.55 L 487.635 226.849 L 472.108 226.849 L 472.108 258.343 L 472.108 258.343 Q 472.108 263.177 474.403 265.765 L 474.403 265.765 L 474.403 265.765 Q 476.698 268.353 480.702 268.353 Z  M 521.327 275.043 L 521.327 275.043 L 521.327 275.043 Q 509.461 275.043 502.601 267.816 L 502.601 267.816 L 502.601 267.816 Q 495.741 260.589 495.741 247.748 L 495.741 247.748 L 495.741 247.748 Q 495.741 234.808 502.113 227.191 L 502.113 227.191 L 502.113 227.191 Q 508.485 219.574 519.227 219.574 L 519.227 219.574 L 519.227 219.574 Q 529.286 219.574 535.145 226.19 L 535.145 226.19 L 535.145 226.19 Q 541.004 232.806 541.004 243.646 L 541.004 243.646 L 541.004 248.773 L 504.139 248.773 L 504.139 248.773 Q 504.383 258.197 508.9 263.08 L 508.9 263.08 L 508.9 263.08 Q 513.417 267.962 521.62 267.962 L 521.62 267.962 L 521.62 267.962 Q 530.262 267.962 538.71 264.349 L 538.71 264.349 L 538.71 271.576 L 538.71 271.576 Q 534.413 273.431 530.58 274.237 L 530.58 274.237 L 530.58 274.237 Q 526.747 275.043 521.327 275.043 Z  M 519.129 226.361 L 519.129 226.361 L 519.129 226.361 Q 512.684 226.361 508.851 230.56 L 508.851 230.56 L 508.851 230.56 Q 505.018 234.759 504.335 242.181 L 504.335 242.181 L 532.313 242.181 L 532.313 242.181 Q 532.313 234.515 528.895 230.438 L 528.895 230.438 L 528.895 230.438 Q 525.477 226.361 519.129 226.361 Z  M 579.725 275.043 L 579.725 275.043 L 579.725 275.043 Q 574.501 275.043 570.179 273.114 L 570.179 273.114 L 570.179 273.114 Q 565.858 271.185 562.928 267.181 L 562.928 267.181 L 562.342 267.181 L 562.342 267.181 Q 562.928 271.869 562.928 276.068 L 562.928 276.068 L 562.928 298.089 L 554.823 298.089 L 554.823 220.55 L 561.415 220.55 L 562.538 227.875 L 562.928 227.875 L 562.928 227.875 Q 566.053 223.48 570.204 221.527 L 570.204 221.527 L 570.204 221.527 Q 574.354 219.574 579.725 219.574 L 579.725 219.574 L 579.725 219.574 Q 590.37 219.574 596.156 226.849 L 596.156 226.849 L 596.156 226.849 Q 601.942 234.125 601.942 247.259 L 601.942 247.259 L 601.942 247.259 Q 601.942 260.443 596.058 267.743 L 596.058 267.743 L 596.058 267.743 Q 590.174 275.043 579.725 275.043 Z  M 578.553 226.459 L 578.553 226.459 L 578.553 226.459 Q 570.35 226.459 566.688 231 L 566.688 231 L 566.688 231 Q 563.026 235.541 562.928 245.453 L 562.928 245.453 L 562.928 247.259 L 562.928 247.259 Q 562.928 258.539 566.688 263.397 L 566.688 263.397 L 566.688 263.397 Q 570.448 268.255 578.749 268.255 L 578.749 268.255 L 578.749 268.255 Q 585.682 268.255 589.613 262.64 L 589.613 262.64 L 589.613 262.64 Q 593.544 257.025 593.544 247.162 L 593.544 247.162 L 593.544 247.162 Q 593.544 237.152 589.613 231.805 L 589.613 231.805 L 589.613 231.805 Q 585.682 226.459 578.553 226.459 Z  M 641.004 275.043 L 641.004 275.043 L 641.004 275.043 Q 635.78 275.043 631.459 273.114 L 631.459 273.114 L 631.459 273.114 Q 627.137 271.185 624.208 267.181 L 624.208 267.181 L 623.622 267.181 L 623.622 267.181 Q 624.208 271.869 624.208 276.068 L 624.208 276.068 L 624.208 298.089 L 616.102 298.089 L 616.102 220.55 L 622.694 220.55 L 623.817 227.875 L 624.208 227.875 L 624.208 227.875 Q 627.333 223.48 631.483 221.527 L 631.483 221.527 L 631.483 221.527 Q 635.633 219.574 641.004 219.574 L 641.004 219.574 L 641.004 219.574 Q 651.649 219.574 657.435 226.849 L 657.435 226.849 L 657.435 226.849 Q 663.221 234.125 663.221 247.259 L 663.221 247.259 L 663.221 247.259 Q 663.221 260.443 657.337 267.743 L 657.337 267.743 L 657.337 267.743 Q 651.454 275.043 641.004 275.043 Z  M 639.833 226.459 L 639.833 226.459 L 639.833 226.459 Q 631.629 226.459 627.967 231 L 627.967 231 L 627.967 231 Q 624.305 235.541 624.208 245.453 L 624.208 245.453 L 624.208 247.259 L 624.208 247.259 Q 624.208 258.539 627.967 263.397 L 627.967 263.397 L 627.967 263.397 Q 631.727 268.255 640.028 268.255 L 640.028 268.255 L 640.028 268.255 Q 646.961 268.255 650.892 262.64 L 650.892 262.64 L 650.892 262.64 Q 654.823 257.025 654.823 247.162 L 654.823 247.162 L 654.823 247.162 Q 654.823 237.152 650.892 231.805 L 650.892 231.805 L 650.892 231.805 Q 646.961 226.459 639.833 226.459 Z  M 699.989 275.043 L 699.989 275.043 L 699.989 275.043 Q 688.124 275.043 681.263 267.816 L 681.263 267.816 L 681.263 267.816 Q 674.403 260.589 674.403 247.748 L 674.403 247.748 L 674.403 247.748 Q 674.403 234.808 680.775 227.191 L 680.775 227.191 L 680.775 227.191 Q 687.147 219.574 697.889 219.574 L 697.889 219.574 L 697.889 219.574 Q 707.948 219.574 713.807 226.19 L 713.807 226.19 L 713.807 226.19 Q 719.667 232.806 719.667 243.646 L 719.667 243.646 L 719.667 248.773 L 682.801 248.773 L 682.801 248.773 Q 683.045 258.197 687.562 263.08 L 687.562 263.08 L 687.562 263.08 Q 692.079 267.962 700.282 267.962 L 700.282 267.962 L 700.282 267.962 Q 708.924 267.962 717.372 264.349 L 717.372 264.349 L 717.372 271.576 L 717.372 271.576 Q 713.075 273.431 709.242 274.237 L 709.242 274.237 L 709.242 274.237 Q 705.409 275.043 699.989 275.043 Z  M 697.792 226.361 L 697.792 226.361 L 697.792 226.361 Q 691.346 226.361 687.513 230.56 L 687.513 230.56 L 687.513 230.56 Q 683.68 234.759 682.997 242.181 L 682.997 242.181 L 710.975 242.181 L 710.975 242.181 Q 710.975 234.515 707.557 230.438 L 707.557 230.438 L 707.557 230.438 Q 704.139 226.361 697.792 226.361 Z  M 757.899 219.574 L 757.899 219.574 L 757.899 219.574 Q 761.463 219.574 764.295 220.16 L 764.295 220.16 L 763.172 227.679 L 763.172 227.679 Q 759.852 226.947 757.313 226.947 L 757.313 226.947 L 757.313 226.947 Q 750.819 226.947 746.205 232.22 L 746.205 232.22 L 746.205 232.22 Q 741.59 237.494 741.59 245.355 L 741.59 245.355 L 741.59 274.066 L 733.485 274.066 L 733.485 220.55 L 740.174 220.55 L 741.102 230.462 L 741.493 230.462 L 741.493 230.462 Q 744.471 225.238 748.67 222.406 L 748.67 222.406 L 748.67 222.406 Q 752.87 219.574 757.899 219.574 Z  M 813.807 274.066 L 807.118 274.066 L 782.899 210.785 L 782.508 210.785 L 782.508 210.785 Q 783.192 218.304 783.192 228.656 L 783.192 228.656 L 783.192 274.066 L 775.526 274.066 L 775.526 202.679 L 788.026 202.679 L 810.633 261.566 L 811.024 261.566 L 833.827 202.679 L 846.229 202.679 L 846.229 274.066 L 837.928 274.066 L 837.928 228.07 L 837.928 228.07 Q 837.928 220.16 838.612 210.882 L 838.612 210.882 L 838.221 210.882 L 813.807 274.066 L 813.807 274.066 Z  M 910.78 247.259 L 910.78 247.259 L 910.78 247.259 Q 910.78 260.345 904.188 267.694 L 904.188 267.694 L 904.188 267.694 Q 897.596 275.043 885.975 275.043 L 885.975 275.043 L 885.975 275.043 Q 878.797 275.043 873.231 271.673 L 873.231 271.673 L 873.231 271.673 Q 867.665 268.304 864.637 262.005 L 864.637 262.005 L 864.637 262.005 Q 861.61 255.707 861.61 247.259 L 861.61 247.259 L 861.61 247.259 Q 861.61 234.173 868.153 226.874 L 868.153 226.874 L 868.153 226.874 Q 874.696 219.574 886.317 219.574 L 886.317 219.574 L 886.317 219.574 Q 897.547 219.574 904.164 227.045 L 904.164 227.045 L 904.164 227.045 Q 910.78 234.515 910.78 247.259 Z  M 870.008 247.259 L 870.008 247.259 L 870.008 247.259 Q 870.008 257.513 874.11 262.884 L 874.11 262.884 L 874.11 262.884 Q 878.211 268.255 886.17 268.255 L 886.17 268.255 L 886.17 268.255 Q 894.129 268.255 898.255 262.909 L 898.255 262.909 L 898.255 262.909 Q 902.381 257.562 902.381 247.259 L 902.381 247.259 L 902.381 247.259 Q 902.381 237.054 898.255 231.756 L 898.255 231.756 L 898.255 231.756 Q 894.129 226.459 886.073 226.459 L 886.073 226.459 L 886.073 226.459 Q 878.114 226.459 874.061 231.683 L 874.061 231.683 L 874.061 231.683 Q 870.008 236.908 870.008 247.259 Z  M 942.274 268.353 L 942.274 268.353 L 942.274 268.353 Q 944.422 268.353 946.424 268.036 L 946.424 268.036 L 946.424 268.036 Q 948.426 267.718 949.598 267.377 L 949.598 267.377 L 949.598 273.578 L 949.598 273.578 Q 948.28 274.212 945.716 274.628 L 945.716 274.628 L 945.716 274.628 Q 943.153 275.043 941.102 275.043 L 941.102 275.043 L 941.102 275.043 Q 925.575 275.043 925.575 258.685 L 925.575 258.685 L 925.575 226.849 L 917.909 226.849 L 917.909 222.943 L 925.575 219.574 L 928.993 208.148 L 933.68 208.148 L 933.68 220.55 L 949.208 220.55 L 949.208 226.849 L 933.68 226.849 L 933.68 258.343 L 933.68 258.343 Q 933.68 263.177 935.975 265.765 L 935.975 265.765 L 935.975 265.765 Q 938.27 268.353 942.274 268.353 Z  M 1006.483 247.259 L 1006.483 247.259 L 1006.483 247.259 Q 1006.483 260.345 999.891 267.694 L 999.891 267.694 L 999.891 267.694 Q 993.299 275.043 981.678 275.043 L 981.678 275.043 L 981.678 275.043 Q 974.501 275.043 968.934 271.673 L 968.934 271.673 L 968.934 271.673 Q 963.368 268.304 960.34 262.005 L 960.34 262.005 L 960.34 262.005 Q 957.313 255.707 957.313 247.259 L 957.313 247.259 L 957.313 247.259 Q 957.313 234.173 963.856 226.874 L 963.856 226.874 L 963.856 226.874 Q 970.399 219.574 982.02 219.574 L 982.02 219.574 L 982.02 219.574 Q 993.251 219.574 999.867 227.045 L 999.867 227.045 L 999.867 227.045 Q 1006.483 234.515 1006.483 247.259 Z  M 965.711 247.259 L 965.711 247.259 L 965.711 247.259 Q 965.711 257.513 969.813 262.884 L 969.813 262.884 L 969.813 262.884 Q 973.915 268.255 981.874 268.255 L 981.874 268.255 L 981.874 268.255 Q 989.833 268.255 993.959 262.909 L 993.959 262.909 L 993.959 262.909 Q 998.085 257.562 998.085 247.259 L 998.085 247.259 L 998.085 247.259 Q 998.085 237.054 993.959 231.756 L 993.959 231.756 L 993.959 231.756 Q 989.833 226.459 981.776 226.459 L 981.776 226.459 L 981.776 226.459 Q 973.817 226.459 969.764 231.683 L 969.764 231.683 L 969.764 231.683 Q 965.711 236.908 965.711 247.259 Z  M 1045.106 219.574 L 1045.106 219.574 L 1045.106 219.574 Q 1048.67 219.574 1051.503 220.16 L 1051.503 220.16 L 1050.379 227.679 L 1050.379 227.679 Q 1047.059 226.947 1044.52 226.947 L 1044.52 226.947 L 1044.52 226.947 Q 1038.026 226.947 1033.412 232.22 L 1033.412 232.22 L 1033.412 232.22 Q 1028.797 237.494 1028.797 245.355 L 1028.797 245.355 L 1028.797 274.066 L 1020.692 274.066 L 1020.692 220.55 L 1027.381 220.55 L 1028.309 230.462 L 1028.7 230.462 L 1028.7 230.462 Q 1031.678 225.238 1035.878 222.406 L 1035.878 222.406 L 1035.878 222.406 Q 1040.077 219.574 1045.106 219.574 Z " fill-rule="evenodd" fill="rgb(32,0,77)"/><path d=" M 475.086 398.108 L 475.086 398.108 L 475.086 398.108 Q 475.086 412.244 464.833 420.154 L 464.833 420.154 L 464.833 420.154 Q 454.579 428.064 437.001 428.064 L 437.001 428.064 L 437.001 428.064 Q 417.958 428.064 407.704 423.157 L 407.704 423.157 L 407.704 411.145 L 407.704 411.145 Q 414.295 413.928 422.059 415.539 L 422.059 415.539 L 422.059 415.539 Q 429.823 417.151 437.44 417.151 L 437.44 417.151 L 437.44 417.151 Q 449.891 417.151 456.19 412.427 L 456.19 412.427 L 456.19 412.427 Q 462.489 407.703 462.489 399.28 L 462.489 399.28 L 462.489 399.28 Q 462.489 393.713 460.255 390.161 L 460.255 390.161 L 460.255 390.161 Q 458.021 386.609 452.784 383.606 L 452.784 383.606 L 452.784 383.606 Q 447.547 380.603 436.854 376.794 L 436.854 376.794 L 436.854 376.794 Q 421.913 371.448 415.504 364.123 L 415.504 364.123 L 415.504 364.123 Q 409.095 356.799 409.095 345.007 L 409.095 345.007 L 409.095 345.007 Q 409.095 332.629 418.397 325.305 L 418.397 325.305 L 418.397 325.305 Q 427.699 317.981 443.006 317.981 L 443.006 317.981 L 443.006 317.981 Q 458.973 317.981 472.377 323.84 L 472.377 323.84 L 468.495 334.68 L 468.495 334.68 Q 455.238 329.114 442.713 329.114 L 442.713 329.114 L 442.713 329.114 Q 432.826 329.114 427.259 333.362 L 427.259 333.362 L 427.259 333.362 Q 421.693 337.61 421.693 345.154 L 421.693 345.154 L 421.693 345.154 Q 421.693 350.72 423.744 354.272 L 423.744 354.272 L 423.744 354.272 Q 425.794 357.825 430.665 360.791 L 430.665 360.791 L 430.665 360.791 Q 435.536 363.757 445.57 367.346 L 445.57 367.346 L 445.57 367.346 Q 462.416 373.352 468.751 380.237 L 468.751 380.237 L 468.751 380.237 Q 475.086 387.121 475.086 398.108 Z  M 529.066 428.064 L 529.066 428.064 L 529.066 428.064 Q 511.268 428.064 500.978 417.224 L 500.978 417.224 L 500.978 417.224 Q 490.687 406.384 490.687 387.121 L 490.687 387.121 L 490.687 387.121 Q 490.687 367.712 500.245 356.287 L 500.245 356.287 L 500.245 356.287 Q 509.803 344.861 525.917 344.861 L 525.917 344.861 L 525.917 344.861 Q 541.004 344.861 549.794 354.785 L 549.794 354.785 L 549.794 354.785 Q 558.583 364.709 558.583 380.969 L 558.583 380.969 L 558.583 388.66 L 503.285 388.66 L 503.285 388.66 Q 503.651 402.795 510.426 410.12 L 510.426 410.12 L 510.426 410.12 Q 517.201 417.444 529.505 417.444 L 529.505 417.444 L 529.505 417.444 Q 542.469 417.444 555.14 412.024 L 555.14 412.024 L 555.14 422.864 L 555.14 422.864 Q 548.695 425.647 542.945 426.855 L 542.945 426.855 L 542.945 426.855 Q 537.196 428.064 529.066 428.064 Z  M 525.77 355.041 L 525.77 355.041 L 525.77 355.041 Q 516.102 355.041 510.353 361.34 L 510.353 361.34 L 510.353 361.34 Q 504.603 367.639 503.578 378.772 L 503.578 378.772 L 545.545 378.772 L 545.545 378.772 Q 545.545 367.273 540.419 361.157 L 540.419 361.157 L 540.419 361.157 Q 535.292 355.041 525.77 355.041 Z  M 615.931 344.861 L 615.931 344.861 L 615.931 344.861 Q 621.278 344.861 625.526 345.74 L 625.526 345.74 L 623.841 357.019 L 623.841 357.019 Q 618.861 355.92 615.052 355.92 L 615.052 355.92 L 615.052 355.92 Q 605.311 355.92 598.39 363.83 L 598.39 363.83 L 598.39 363.83 Q 591.468 371.741 591.468 383.533 L 591.468 383.533 L 591.468 426.599 L 579.31 426.599 L 579.31 346.326 L 589.344 346.326 L 590.736 361.194 L 591.322 361.194 L 591.322 361.194 Q 595.79 353.357 602.088 349.109 L 602.088 349.109 L 602.088 349.109 Q 608.387 344.861 615.931 344.861 Z  M 672.328 426.599 L 658.119 426.599 L 627.65 346.326 L 640.687 346.326 L 657.972 393.933 L 657.972 393.933 Q 663.832 410.632 664.857 415.613 L 664.857 415.613 L 665.443 415.613 L 665.443 415.613 Q 666.249 411.731 670.533 399.536 L 670.533 399.536 L 670.533 399.536 Q 674.818 387.341 689.759 346.326 L 689.759 346.326 L 702.796 346.326 L 672.328 426.599 L 672.328 426.599 Z  M 749.598 428.064 L 749.598 428.064 L 749.598 428.064 Q 731.8 428.064 721.51 417.224 L 721.51 417.224 L 721.51 417.224 Q 711.219 406.384 711.219 387.121 L 711.219 387.121 L 711.219 387.121 Q 711.219 367.712 720.777 356.287 L 720.777 356.287 L 720.777 356.287 Q 730.336 344.861 746.449 344.861 L 746.449 344.861 L 746.449 344.861 Q 761.537 344.861 770.326 354.785 L 770.326 354.785 L 770.326 354.785 Q 779.115 364.709 779.115 380.969 L 779.115 380.969 L 779.115 388.66 L 723.817 388.66 L 723.817 388.66 Q 724.183 402.795 730.958 410.12 L 730.958 410.12 L 730.958 410.12 Q 737.733 417.444 750.038 417.444 L 750.038 417.444 L 750.038 417.444 Q 763.002 417.444 775.672 412.024 L 775.672 412.024 L 775.672 422.864 L 775.672 422.864 Q 769.227 425.647 763.478 426.855 L 763.478 426.855 L 763.478 426.855 Q 757.728 428.064 749.598 428.064 Z  M 746.302 355.041 L 746.302 355.041 L 746.302 355.041 Q 736.634 355.041 730.885 361.34 L 730.885 361.34 L 730.885 361.34 Q 725.135 367.639 724.11 378.772 L 724.11 378.772 L 766.078 378.772 L 766.078 378.772 Q 766.078 367.273 760.951 361.157 L 760.951 361.157 L 760.951 361.157 Q 755.824 355.041 746.302 355.041 Z  M 836.463 344.861 L 836.463 344.861 L 836.463 344.861 Q 841.81 344.861 846.058 345.74 L 846.058 345.74 L 844.374 357.019 L 844.374 357.019 Q 839.393 355.92 835.585 355.92 L 835.585 355.92 L 835.585 355.92 Q 825.843 355.92 818.922 363.83 L 818.922 363.83 L 818.922 363.83 Q 812.001 371.741 812.001 383.533 L 812.001 383.533 L 812.001 426.599 L 799.842 426.599 L 799.842 346.326 L 809.877 346.326 L 811.268 361.194 L 811.854 361.194 L 811.854 361.194 Q 816.322 353.357 822.621 349.109 L 822.621 349.109 L 822.621 349.109 Q 828.919 344.861 836.463 344.861 Z " fill-rule="evenodd" fill="rgb(32,0,77)"/></g></svg>