<?xml version="1.0" standalone="no"?><!-- Generator: Gravit.io --><svg xmlns="http://www.w3.org/2000/svg" xmlns:xlink="http://www.w3.org/1999/xlink" style="isolation:isolate" viewBox="0 0 160 250" width="160" height="250"><defs><clipPath id="_clipPath_jaJvIYIArEtfuS8TkU1XvQqEY1B0tu2q"><rect width="160" height="250"/></clipPath></defs><g clip-path="url(#_clipPath_jaJvIYIArEtfuS8TkU1XvQqEY1B0tu2q)"><clipPath id="_clipPath_hnZhkNiIoSHdomPoKfk2AlDGcZj7xpY8"><rect x="-47" y="-1" width="255.118" height="255.118" transform="matrix(1,0,0,1,0,0)" fill="rgb(255,255,255)"/></clipPath><g clip-path="url(#_clipPath_hnZhkNiIoSHdomPoKfk2AlDGcZj7xpY8)"><g><path d=" M 5.84 111.937 L 5.84 235.062 L 22.465 243.374 L 138.715 243.374 L 155.278 235.062 L 155.278 111.937 L 5.84 111.937 Z " fill-rule="evenodd" fill="rgb(77,77,77)"/><path d=" M 5.84 143.03 L 5.84 197.03 L 22.059 205.155 L 22.059 151.155 L 5.84 143.03 Z  M 155.278 142.03 L 139.059 150.155 L 139.059 204.155 L 155.278 196.03 L 155.278 142.03 Z " fill-rule="evenodd" fill="rgb(51,51,51)"/><path d=" M 4.059 42.655 L 22.059 33.655 L 139.059 33.655 L 157.059 42.655 L 157.059 101.155 L 139.059 110.155 L 21.829 110.155 L 4.059 101.155 L 4.059 42.655 Z " fill-rule="evenodd" fill="rgb(230,230,230)"/><linearGradient id="_lgradient_0" x1="0.22852953498114792" y1="0.10787744116738496" x2="0.5904901550062841" y2="0.37934790618623715" gradientTransform="matrix(149.188,0,0,74.593,5.965,34.609)" gradientUnits="userSpaceOnUse"><stop offset="0%" stop-opacity="1" style="stop-color:rgb(179,179,179)"/><stop offset="100%" stop-opacity="0.35135135" style="stop-color:rgb(179,179,179)"/></linearGradient><path d=" M 22.84 34.609 L 5.965 43.046 L 5.965 100.749 L 22.653 109.202 L 138.278 109.202 L 155.153 100.765 L 155.153 43.046 L 138.278 34.609 L 22.84 34.609 Z " fill-rule="evenodd" fill="url(#_lgradient_0)"/><clipPath id="_clipPath_m2R4Mb35MXTj3fVOpAGpZOawK3vPdKsU"><path d=" M -557.236 -511.236 L 463.236 -511.236 L 463.236 509.236 L -557.236 509.236 L -557.236 -511.236 Z  M 122.816 73.905 C 122.816 85.568 103.885 95.034 80.559 95.034 C 57.233 95.034 38.302 85.568 38.302 73.905 C 38.302 62.243 57.233 52.777 80.559 52.777 C 103.885 52.777 122.816 62.243 122.816 73.905 Z " fill-rule="evenodd" fill="rgb(255,255,255)"/></clipPath><g clip-path="url(#_clipPath_m2R4Mb35MXTj3fVOpAGpZOawK3vPdKsU)"><mask id="_mask_3eTtLZa7Dljewd0KPJacxi6UYTL7pgWr" x="-200%" y="-200%" width="400%" height="400%"><rect x="-200%" y="-200%" width="400%" height="400%" style="fill:white;"/><path d=" M 122.816 73.905 C 122.816 85.568 103.885 95.034 80.559 95.034 C 57.233 95.034 38.302 85.568 38.302 73.905 C 38.302 62.243 57.233 52.777 80.559 52.777 C 103.885 52.777 122.816 62.243 122.816 73.905 Z " fill-rule="evenodd" fill="black" stroke="none"/></mask><path d=" M 122.816 73.905 C 122.816 85.568 103.885 95.034 80.559 95.034 C 57.233 95.034 38.302 85.568 38.302 73.905 C 38.302 62.243 57.233 52.777 80.559 52.777 C 103.885 52.777 122.816 62.243 122.816 73.905 Z " fill-rule="evenodd" fill="none" mask="url(#_mask_3eTtLZa7Dljewd0KPJacxi6UYTL7pgWr)" vector-effect="non-scaling-stroke" stroke-width="2" stroke="rgb(179,179,179)" stroke-opacity="100" stroke-linejoin="miter" stroke-linecap="butt" stroke-miterlimit="4"/></g><g><linearGradient id="_lgradient_1" x1="0.5" y1="-0.16666666666666607" x2="0.4999999999999999" y2="0.5" gradientTransform="matrix(13.5,0,0,6.75,15.309,39.28)" gradientUnits="userSpaceOnUse"><stop offset="0%" stop-opacity="1" style="stop-color:rgb(0,0,0)"/><stop offset="100%" stop-opacity="1" style="stop-color:rgb(207,207,207)"/></linearGradient><path d=" M 28.809 42.655 C 28.809 44.518 25.785 46.03 22.059 46.03 C 18.333 46.03 15.309 44.518 15.309 42.655 C 15.309 40.792 18.333 39.28 22.059 39.28 C 25.785 39.28 28.809 40.792 28.809 42.655 Z " fill-rule="evenodd" fill="url(#_lgradient_1)"/><g style="opacity:0.96000001;"><g opacity="0.96000001"><path d=" M 26.559 43.541 C 26.559 44.783 24.543 45.791 22.059 45.791 C 19.575 45.791 17.559 44.783 17.559 43.541 C 17.559 42.299 19.575 41.291 22.059 41.291 C 24.543 41.291 26.559 42.299 26.559 43.541 Z " fill-rule="evenodd" fill="rgb(0,0,0)"/></g></g></g><g><linearGradient id="_lgradient_2" x1="0.5" y1="-0.16666666666666607" x2="0.4999999999999999" y2="0.5" gradientTransform="matrix(13.5,0,0,6.75,132.309,97.78)" gradientUnits="userSpaceOnUse"><stop offset="0%" stop-opacity="1" style="stop-color:rgb(0,0,0)"/><stop offset="100%" stop-opacity="1" style="stop-color:rgb(207,207,207)"/></linearGradient><path d=" M 145.809 101.155 C 145.809 103.018 142.785 104.53 139.059 104.53 C 135.333 104.53 132.309 103.018 132.309 101.155 C 132.309 99.292 135.333 97.78 139.059 97.78 C 142.785 97.78 145.809 99.292 145.809 101.155 Z " fill-rule="evenodd" fill="url(#_lgradient_2)"/><g style="opacity:0.96000001;"><g opacity="0.96000001"><path d=" M 143.559 102.041 C 143.559 103.283 141.543 104.291 139.059 104.291 C 136.575 104.291 134.559 103.283 134.559 102.041 C 134.559 100.799 136.575 99.791 139.059 99.791 C 141.543 99.791 143.559 100.799 143.559 102.041 Z " fill-rule="evenodd" fill="rgb(0,0,0)"/></g></g></g><g><linearGradient id="_lgradient_3" x1="0.5" y1="-0.16666666666666607" x2="0.4999999999999999" y2="0.5" gradientTransform="matrix(13.5,0,0,6.75,15.309,97.78)" gradientUnits="userSpaceOnUse"><stop offset="0%" stop-opacity="1" style="stop-color:rgb(0,0,0)"/><stop offset="100%" stop-opacity="1" style="stop-color:rgb(207,207,207)"/></linearGradient><path d=" M 28.809 101.155 C 28.809 103.018 25.785 104.53 22.059 104.53 C 18.333 104.53 15.309 103.018 15.309 101.155 C 15.309 99.292 18.333 97.78 22.059 97.78 C 25.785 97.78 28.809 99.292 28.809 101.155 Z " fill-rule="evenodd" fill="url(#_lgradient_3)"/><g style="opacity:0.96000001;"><g opacity="0.96000001"><path d=" M 26.559 102.041 C 26.559 103.283 24.543 104.291 22.059 104.291 C 19.575 104.291 17.559 103.283 17.559 102.041 C 17.559 100.799 19.575 99.791 22.059 99.791 C 24.543 99.791 26.559 100.799 26.559 102.041 Z " fill-rule="evenodd" fill="rgb(0,0,0)"/></g></g></g><g><linearGradient id="_lgradient_4" x1="0.5" y1="-0.16666666666666607" x2="0.4999999999999999" y2="0.5" gradientTransform="matrix(13.5,0,0,6.75,132.309,39.28)" gradientUnits="userSpaceOnUse"><stop offset="0%" stop-opacity="1" style="stop-color:rgb(0,0,0)"/><stop offset="100%" stop-opacity="1" style="stop-color:rgb(207,207,207)"/></linearGradient><path d=" M 145.809 42.655 C 145.809 44.518 142.785 46.03 139.059 46.03 C 135.333 46.03 132.309 44.518 132.309 42.655 C 132.309 40.792 135.333 39.28 139.059 39.28 C 142.785 39.28 145.809 40.792 145.809 42.655 Z " fill-rule="evenodd" fill="url(#_lgradient_4)"/><g style="opacity:0.96000001;"><g opacity="0.96000001"><path d=" M 143.559 43.541 C 143.559 44.783 141.543 45.791 139.059 45.791 C 136.575 45.791 134.559 44.783 134.559 43.541 C 134.559 42.299 136.575 41.291 139.059 41.291 C 141.543 41.291 143.559 42.299 143.559 43.541 Z " fill-rule="evenodd" fill="rgb(0,0,0)"/></g></g></g><path d=" M 119.535 73.905 C 119.535 84.663 102.074 93.394 80.559 93.394 C 59.044 93.394 41.583 84.663 41.583 73.905 C 41.583 63.148 59.044 54.417 80.559 54.417 C 102.074 54.417 119.535 63.148 119.535 73.905 Z " fill-rule="evenodd" fill="rgb(249,249,249)"/><path d=" M 119.535 71.905 C 119.535 82.663 102.074 91.394 80.559 91.394 C 59.044 91.394 41.583 82.663 41.583 71.905 C 41.583 61.148 59.044 52.417 80.559 52.417 C 102.074 52.417 119.535 61.148 119.535 71.905 Z " fill-rule="evenodd" fill="rgb(153,153,153)"/><path d=" M 92.961 71.905 C 92.961 75.328 87.405 78.106 80.559 78.106 C 73.713 78.106 68.157 75.328 68.157 71.905 C 68.157 68.483 73.713 65.705 80.559 65.705 C 87.405 65.705 92.961 68.483 92.961 71.905 Z " fill-rule="evenodd" fill="rgb(51,51,51)"/><linearGradient id="_lgradient_5" x1="0.24601386520605217" y1="0.5776839465284719" x2="0.7540425809443194" y2="0.5776839465284719" gradientTransform="matrix(17.716,0,0,69.095,71.701,7.24)" gradientUnits="userSpaceOnUse"><stop offset="0%" stop-opacity="1" style="stop-color:rgb(230,230,230)"/><stop offset="50%" stop-opacity="1" style="stop-color:rgb(101,101,101)"/><stop offset="100%" stop-opacity="1" style="stop-color:rgb(159,159,159)"/></linearGradient><path d=" M 89.417 11.669 L 89.417 71.905 C 89.417 74.35 85.449 76.335 80.559 76.335 C 75.669 76.335 71.701 74.35 71.701 71.905 L 71.701 11.669 C 71.701 9.224 75.669 7.24 80.559 7.24 C 85.449 7.24 89.417 9.224 89.417 11.669 Z " fill-rule="evenodd" fill="url(#_lgradient_5)"/><path d=" M 89.417 11.669 C 89.417 14.114 85.449 16.098 80.559 16.098 C 75.669 16.098 71.701 14.114 71.701 11.669 C 71.701 9.224 75.669 7.24 80.559 7.24 C 85.449 7.24 89.417 9.224 89.417 11.669 Z " fill-rule="evenodd" fill="rgb(230,230,230)"/><path d=" M 87.972 9.669 C 87.972 11.715 84.651 13.376 80.559 13.376 C 76.467 13.376 73.146 11.715 73.146 9.669 C 73.146 7.623 76.467 5.963 80.559 5.963 C 84.651 5.963 87.972 7.623 87.972 9.669 Z " fill-rule="evenodd" fill="rgb(204,204,204)"/><path d=" M 26.059 146.155 L 26.059 150.155 L 135.059 150.155 L 135.059 146.155 L 26.059 146.155 Z  M 5.84 156.03 L 5.84 160.03 L 22.059 168.155 L 26.059 167.155 L 26.059 163.155 L 22.059 164.155 L 5.84 156.03 Z  M 155.278 156.03 L 139.059 164.155 L 135.059 163.155 L 135.059 167.155 L 139.059 168.155 L 155.278 160.03 L 155.278 156.03 Z " fill-rule="evenodd" fill="rgb(26,26,26)"/><g style="opacity:0.31;"><g opacity="0.31"><mask id="_mask_YH9vVwwpqMxSzij2xc0ctWCYuRpCJW30" x="-200%" y="-200%" width="400%" height="400%"><rect x="-200%" y="-200%" width="400%" height="400%" style="fill:white;"/><path d=" M 6.215 188.216 L 23.028 196.341 L 139.09 196.341 L 155.653 188.216" fill="black" stroke="none"/></mask><path d=" M 6.215 188.216 L 23.028 196.341 L 139.09 196.341 L 155.653 188.216" fill="none" mask="url(#_mask_YH9vVwwpqMxSzij2xc0ctWCYuRpCJW30)" vector-effect="non-scaling-stroke" stroke-width="2" stroke="rgb(0,0,0)" stroke-opacity="100" stroke-linejoin="miter" stroke-linecap="square" stroke-miterlimit="3"/></g><g opacity="0.31"><mask id="_mask_MHWtuhBWlWJUYROvad02upNZL4nPGxyv" x="-200%" y="-200%" width="400%" height="400%"><rect x="-200%" y="-200%" width="400%" height="400%" style="fill:white;"/><path d=" M 6.215 194.109 L 23.028 202.234 L 139.09 202.234 L 155.653 194.109" fill="black" stroke="none"/></mask><path d=" M 6.215 194.109 L 23.028 202.234 L 139.09 202.234 L 155.653 194.109" fill="none" mask="url(#_mask_MHWtuhBWlWJUYROvad02upNZL4nPGxyv)" vector-effect="non-scaling-stroke" stroke-width="2" stroke="rgb(0,0,0)" stroke-opacity="100" stroke-linejoin="miter" stroke-linecap="square" stroke-miterlimit="3"/></g><g opacity="0.31"><mask id="_mask_6nL2kx0AhMSSWxRTx8iXA9CceL7mVDxZ" x="-200%" y="-200%" width="400%" height="400%"><rect x="-200%" y="-200%" width="400%" height="400%" style="fill:white;"/><path d=" M 6.215 191.162 L 23.028 199.287 L 139.09 199.287 L 155.653 191.162" fill="black" stroke="none"/></mask><path d=" M 6.215 191.162 L 23.028 199.287 L 139.09 199.287 L 155.653 191.162" fill="none" mask="url(#_mask_6nL2kx0AhMSSWxRTx8iXA9CceL7mVDxZ)" vector-effect="non-scaling-stroke" stroke-width="2" stroke="rgb(0,0,0)" stroke-opacity="100" stroke-linejoin="miter" stroke-linecap="square" stroke-miterlimit="3"/></g><g opacity="0.31"><mask id="_mask_X5K6indUNGnQX49zxumKPx1T2jrMLlxu" x="-200%" y="-200%" width="400%" height="400%"><rect x="-200%" y="-200%" width="400%" height="400%" style="fill:white;"/><path d=" M 6.215 149.906 L 23.028 158.031 L 139.09 158.031 L 155.653 149.906" fill="black" stroke="none"/></mask><path d=" M 6.215 149.906 L 23.028 158.031 L 139.09 158.031 L 155.653 149.906" fill="none" mask="url(#_mask_X5K6indUNGnQX49zxumKPx1T2jrMLlxu)" vector-effect="non-scaling-stroke" stroke-width="2" stroke="rgb(0,0,0)" stroke-opacity="100" stroke-linejoin="miter" stroke-linecap="square" stroke-miterlimit="3"/></g><g opacity="0.31"><mask id="_mask_kxRhhYgFw25dGsFB9lsXwd3Tf0cwaNqQ" x="-200%" y="-200%" width="400%" height="400%"><rect x="-200%" y="-200%" width="400%" height="400%" style="fill:white;"/><path d=" M 6.215 182.322 L 23.028 190.447 L 139.09 190.447 L 155.653 182.322" fill="black" stroke="none"/></mask><path d=" M 6.215 182.322 L 23.028 190.447 L 139.09 190.447 L 155.653 182.322" fill="none" mask="url(#_mask_kxRhhYgFw25dGsFB9lsXwd3Tf0cwaNqQ)" vector-effect="non-scaling-stroke" stroke-width="2" stroke="rgb(0,0,0)" stroke-opacity="100" stroke-linejoin="miter" stroke-linecap="square" stroke-miterlimit="3"/></g><g opacity="0.31"><mask id="_mask_OjK1xzlqgbXQbjbGuNOWxHvxrUftaUTf" x="-200%" y="-200%" width="400%" height="400%"><rect x="-200%" y="-200%" width="400%" height="400%" style="fill:white;"/><path d=" M 6.215 179.375 L 23.028 187.5 L 139.09 187.5 L 155.653 179.375" fill="black" stroke="none"/></mask><path d=" M 6.215 179.375 L 23.028 187.5 L 139.09 187.5 L 155.653 179.375" fill="none" mask="url(#_mask_OjK1xzlqgbXQbjbGuNOWxHvxrUftaUTf)" vector-effect="non-scaling-stroke" stroke-width="2" stroke="rgb(0,0,0)" stroke-opacity="100" stroke-linejoin="miter" stroke-linecap="square" stroke-miterlimit="3"/></g><g opacity="0.31"><mask id="_mask_IhSYsVDIgllN9NnFl007ck4dqWvre9ZH" x="-200%" y="-200%" width="400%" height="400%"><rect x="-200%" y="-200%" width="400%" height="400%" style="fill:white;"/><path d=" M 6.215 146.959 L 23.028 155.084 L 139.09 155.084 L 155.653 146.959" fill="black" stroke="none"/></mask><path d=" M 6.215 146.959 L 23.028 155.084 L 139.09 155.084 L 155.653 146.959" fill="none" mask="url(#_mask_IhSYsVDIgllN9NnFl007ck4dqWvre9ZH)" vector-effect="non-scaling-stroke" stroke-width="2" stroke="rgb(0,0,0)" stroke-opacity="100" stroke-linejoin="miter" stroke-linecap="square" stroke-miterlimit="3"/></g><g opacity="0.31"><mask id="_mask_7ly1QoNb3jHI4fjLTzexb8e43DI6ecl4" x="-200%" y="-200%" width="400%" height="400%"><rect x="-200%" y="-200%" width="400%" height="400%" style="fill:white;"/><path d=" M 6.215 158.746 L 23.028 166.871 L 139.09 166.871 L 155.653 158.746" fill="black" stroke="none"/></mask><path d=" M 6.215 158.746 L 23.028 166.871 L 139.09 166.871 L 155.653 158.746" fill="none" mask="url(#_mask_7ly1QoNb3jHI4fjLTzexb8e43DI6ecl4)" vector-effect="non-scaling-stroke" stroke-width="2" stroke="rgb(0,0,0)" stroke-opacity="100" stroke-linejoin="miter" stroke-linecap="square" stroke-miterlimit="3"/></g><g opacity="0.31"><mask id="_mask_AIslBoR21ZmgsQc1oF0YvN8WD7o0e2G7" x="-200%" y="-200%" width="400%" height="400%"><rect x="-200%" y="-200%" width="400%" height="400%" style="fill:white;"/><path d=" M 6.215 152.853 L 23.028 160.978 L 139.09 160.978 L 155.653 152.853" fill="black" stroke="none"/></mask><path d=" M 6.215 152.853 L 23.028 160.978 L 139.09 160.978 L 155.653 152.853" fill="none" mask="url(#_mask_AIslBoR21ZmgsQc1oF0YvN8WD7o0e2G7)" vector-effect="non-scaling-stroke" stroke-width="2" stroke="rgb(0,0,0)" stroke-opacity="100" stroke-linejoin="miter" stroke-linecap="square" stroke-miterlimit="3"/></g><g opacity="0.31"><mask id="_mask_ZnPjSZqZJ4hJVnHt5K6zSGpqL7fyHQaS" x="-200%" y="-200%" width="400%" height="400%"><rect x="-200%" y="-200%" width="400%" height="400%" style="fill:white;"/><path d=" M 6.215 164.64 L 23.028 172.765 L 139.09 172.765 L 155.653 164.64" fill="black" stroke="none"/></mask><path d=" M 6.215 164.64 L 23.028 172.765 L 139.09 172.765 L 155.653 164.64" fill="none" mask="url(#_mask_ZnPjSZqZJ4hJVnHt5K6zSGpqL7fyHQaS)" vector-effect="non-scaling-stroke" stroke-width="2" stroke="rgb(0,0,0)" stroke-opacity="100" stroke-linejoin="miter" stroke-linecap="square" stroke-miterlimit="3"/></g><g opacity="0.31"><mask id="_mask_3qpIBLDYxpI5neEym5G8UXSEMqF4U7Ly" x="-200%" y="-200%" width="400%" height="400%"><rect x="-200%" y="-200%" width="400%" height="400%" style="fill:white;"/><path d=" M 6.215 185.269 L 23.028 193.394 L 139.09 193.394 L 155.653 185.269" fill="black" stroke="none"/></mask><path d=" M 6.215 185.269 L 23.028 193.394 L 139.09 193.394 L 155.653 185.269" fill="none" mask="url(#_mask_3qpIBLDYxpI5neEym5G8UXSEMqF4U7Ly)" vector-effect="non-scaling-stroke" stroke-width="2" stroke="rgb(0,0,0)" stroke-opacity="100" stroke-linejoin="miter" stroke-linecap="square" stroke-miterlimit="3"/></g><g opacity="0.31"><mask id="_mask_WeUxn71aykd14wc6b1K3KqFFpF92Q1qb" x="-200%" y="-200%" width="400%" height="400%"><rect x="-200%" y="-200%" width="400%" height="400%" style="fill:white;"/><path d=" M 6.215 161.693 L 23.028 169.818 L 139.09 169.818 L 155.653 161.693" fill="black" stroke="none"/></mask><path d=" M 6.215 161.693 L 23.028 169.818 L 139.09 169.818 L 155.653 161.693" fill="none" mask="url(#_mask_WeUxn71aykd14wc6b1K3KqFFpF92Q1qb)" vector-effect="non-scaling-stroke" stroke-width="2" stroke="rgb(0,0,0)" stroke-opacity="100" stroke-linejoin="miter" stroke-linecap="square" stroke-miterlimit="3"/></g><g opacity="0.31"><mask id="_mask_FPKv1EilIfmtxZCOVxQIXUyDXPhKiCoT" x="-200%" y="-200%" width="400%" height="400%"><rect x="-200%" y="-200%" width="400%" height="400%" style="fill:white;"/><path d=" M 6.215 167.587 L 23.028 175.712 L 139.09 175.712 L 155.653 167.587" fill="black" stroke="none"/></mask><path d=" M 6.215 167.587 L 23.028 175.712 L 139.09 175.712 L 155.653 167.587" fill="none" mask="url(#_mask_FPKv1EilIfmtxZCOVxQIXUyDXPhKiCoT)" vector-effect="non-scaling-stroke" stroke-width="2" stroke="rgb(0,0,0)" stroke-opacity="100" stroke-linejoin="miter" stroke-linecap="square" stroke-miterlimit="3"/></g><g opacity="0.31"><mask id="_mask_JQs0vrYarrfwPOKmNyZyjOYWlxdJNymp" x="-200%" y="-200%" width="400%" height="400%"><rect x="-200%" y="-200%" width="400%" height="400%" style="fill:white;"/><path d=" M 6.215 170.534 L 23.028 178.659 L 139.09 178.659 L 155.653 170.534" fill="black" stroke="none"/></mask><path d=" M 6.215 170.534 L 23.028 178.659 L 139.09 178.659 L 155.653 170.534" fill="none" mask="url(#_mask_JQs0vrYarrfwPOKmNyZyjOYWlxdJNymp)" vector-effect="non-scaling-stroke" stroke-width="2" stroke="rgb(0,0,0)" stroke-opacity="100" stroke-linejoin="miter" stroke-linecap="square" stroke-miterlimit="3"/></g><g opacity="0.31"><mask id="_mask_wq7L7oGGVcEMzQKLQwpF1GdoG2tysJbZ" x="-200%" y="-200%" width="400%" height="400%"><rect x="-200%" y="-200%" width="400%" height="400%" style="fill:white;"/><path d=" M 6.215 144.012 L 23.028 152.137 L 139.09 152.137 L 155.653 144.012" fill="black" stroke="none"/></mask><path d=" M 6.215 144.012 L 23.028 152.137 L 139.09 152.137 L 155.653 144.012" fill="none" mask="url(#_mask_wq7L7oGGVcEMzQKLQwpF1GdoG2tysJbZ)" vector-effect="non-scaling-stroke" stroke-width="2" stroke="rgb(0,0,0)" stroke-opacity="100" stroke-linejoin="miter" stroke-linecap="square" stroke-miterlimit="3"/></g><g opacity="0.31"><mask id="_mask_6UB926Io1frqpMW83vj5oH6K4EAikEUi" x="-200%" y="-200%" width="400%" height="400%"><rect x="-200%" y="-200%" width="400%" height="400%" style="fill:white;"/><path d=" M 6.215 155.8 L 23.028 163.925 L 139.09 163.925 L 155.653 155.8" fill="black" stroke="none"/></mask><path d=" M 6.215 155.8 L 23.028 163.925 L 139.09 163.925 L 155.653 155.8" fill="none" mask="url(#_mask_6UB926Io1frqpMW83vj5oH6K4EAikEUi)" vector-effect="non-scaling-stroke" stroke-width="2" stroke="rgb(0,0,0)" stroke-opacity="100" stroke-linejoin="miter" stroke-linecap="square" stroke-miterlimit="3"/></g><g opacity="0.31"><mask id="_mask_RlicvNLafm1cz0RRMPMSUWA982ywrztm" x="-200%" y="-200%" width="400%" height="400%"><rect x="-200%" y="-200%" width="400%" height="400%" style="fill:white;"/><path d=" M 6.215 176.428 L 23.028 184.553 L 139.09 184.553 L 155.653 176.428" fill="black" stroke="none"/></mask><path d=" M 6.215 176.428 L 23.028 184.553 L 139.09 184.553 L 155.653 176.428" fill="none" mask="url(#_mask_RlicvNLafm1cz0RRMPMSUWA982ywrztm)" vector-effect="non-scaling-stroke" stroke-width="2" stroke="rgb(0,0,0)" stroke-opacity="100" stroke-linejoin="miter" stroke-linecap="square" stroke-miterlimit="3"/></g><g opacity="0.31"><mask id="_mask_S0bI66LysNiAewbsaGVnCJvHnhfGFMMg" x="-200%" y="-200%" width="400%" height="400%"><rect x="-200%" y="-200%" width="400%" height="400%" style="fill:white;"/><path d=" M 6.215 173.481 L 23.028 181.606 L 139.09 181.606 L 155.653 173.481" fill="black" stroke="none"/></mask><path d=" M 6.215 173.481 L 23.028 181.606 L 139.09 181.606 L 155.653 173.481" fill="none" mask="url(#_mask_S0bI66LysNiAewbsaGVnCJvHnhfGFMMg)" vector-effect="non-scaling-stroke" stroke-width="2" stroke="rgb(0,0,0)" stroke-opacity="100" stroke-linejoin="miter" stroke-linecap="square" stroke-miterlimit="3"/></g></g><path d=" M 4.059 101.155 L 4.059 155.155 L 22.059 164.155 L 26.059 163.155 L 26.059 146.155 L 135.059 146.155 L 135.059 163.155 L 139.059 164.155 L 157.059 155.155 L 157.059 101.155 L 139.059 110.155 L 22.059 110.155 L 4.059 101.155 Z  M 4.059 182.15 L 4.059 236.15 L 22.059 245.15 L 139.059 245.15 L 157.059 236.15 L 157.059 182.15 L 139.059 191.15 L 135.059 194.15 L 135.059 205.15 L 139.059 209.15 L 22.059 209.15 L 26.059 205.15 L 26.059 194.15 L 22.059 191.15 L 4.059 182.15 Z " fill-rule="evenodd" fill="rgb(179,179,179)"/><path d=" M 22.059 164.155 L 4.059 155.155 L 4.059 101.155 L 22.059 110.155 L 22.059 164.155 Z  M 139.059 164.155 L 157.059 155.155 L 157.059 101.155 L 139.059 110.155 L 139.059 164.155 Z  M 139.059 245.155 L 157.059 236.155 L 157.059 182.155 L 139.059 191.155 L 139.059 245.155 Z  M 22.059 245.155 L 4.059 236.155 L 4.059 182.155 L 22.059 191.155 L 22.059 245.155 Z " fill-rule="evenodd" fill="rgb(153,153,153)"/><path d=" M 4.059 101.155 L 4.059 105.155 L 22.059 114.155 L 139.059 114.155 L 157.059 105.155 L 157.059 101.155 L 139.059 110.155 L 22.059 110.155 L 4.059 101.155 Z  M 4.059 182.155 L 4.059 186.155 L 22.059 195.155 L 22.059 191.155 L 4.059 182.155 Z  M 157.059 182.155 L 139.059 191.155 L 139.059 195.155 L 157.059 186.155 L 157.059 182.155 Z  M 26.059 205.15 L 22.059 209.155 L 139.059 209.155 L 135.059 205.15 L 26.059 205.15 Z " fill-rule="evenodd" fill="rgb(242,242,242)"/><g><linearGradient id="_lgradient_6" x1="0.5" y1="-0.16666666666666652" x2="0.4999999999999999" y2="0.5000000000000002" gradientTransform="matrix(10,0,0,5,75.559,7.169)" gradientUnits="userSpaceOnUse"><stop offset="0%" stop-opacity="1" style="stop-color:rgb(0,0,0)"/><stop offset="100%" stop-opacity="1" style="stop-color:rgb(207,207,207)"/></linearGradient><path d=" M 85.559 9.669 C 85.559 11.049 83.319 12.169 80.559 12.169 C 77.799 12.169 75.559 11.049 75.559 9.669 C 75.559 8.289 77.799 7.169 80.559 7.169 C 83.319 7.169 85.559 8.289 85.559 9.669 Z " fill-rule="evenodd" fill="url(#_lgradient_6)"/><g style="opacity:0.96000001;"><g opacity="0.96000001"><path d=" M 83.892 10.325 C 83.892 11.245 82.399 11.992 80.559 11.992 C 78.719 11.992 77.226 11.245 77.226 10.325 C 77.226 9.405 78.719 8.659 80.559 8.659 C 82.399 8.659 83.892 9.405 83.892 10.325 Z " fill-rule="evenodd" fill="rgb(0,0,0)"/></g></g></g></g></g></g></svg>